<svg xmlns="http://www.w3.org/2000/svg" version="1.1" xmlns:xlink="http://www.w3.org/1999/xlink" width="512" height="512"><svg id="SvgjsSvg1006" xmlns="http://www.w3.org/2000/svg" version="1.1" viewBox="0 0 512 512">
  <!-- Generator: Adobe Illustrator 29.5.0, SVG Export Plug-In . SVG Version: 2.1.0 Build 137)  -->
  <defs>
    <style>
      .st0 {
        fill: #f2dfa7;
      }
    </style>
  </defs>
  <path class="st0" d="M168.72,243.39c9.71-.52,16.99-9.14,15.8-18.75-32.55-261.95,232.59-.86,52.34,25.46-321.38,46.92-88.51,305.73,86.17,254.15,130.57-38.54,186.48-172.06,148.03-308.96C432.62,58.43,304.05-25.22,183.85,8.47,88.59,35.26,27.16,127.86,25.02,233.3c-.19,9.75,8.09,17.56,17.8,17.04l125.96-6.9-.05-.05ZM318.09,249.62c-.33-.95-.62-1.71-.71-2.05,3.14,8.09,37.16,105.73,5.19,140.85-2.71,3-18.99,20.22-42.45,16.99-28.22-3.81-54.67-35.5-53.1-58.24,1.19-17.27,8.8-33.69,48.3-48.73,22.65-8.61,46.3-39.11,42.78-48.82Z"></path>
</svg><style>@media (prefers-color-scheme: light) { :root { filter: none; } }
@media (prefers-color-scheme: dark) { :root { filter: none; } }
</style></svg>