<?xml version="1.0" encoding="utf-8"?>
<!-- Generator: Adobe Illustrator 24.1.2, SVG Export Plug-In . SVG Version: 6.00 Build 0)  -->
<svg version="1.1" id="Layer_1" xmlns="http://www.w3.org/2000/svg" xmlns:xlink="http://www.w3.org/1999/xlink" x="0px" y="0px"
	 viewBox="0 0 237.01 457.56" style="enable-background:new 0 0 237.01 457.56;" xml:space="preserve">
<style type="text/css">
	.st0{fill:#00A651;}
</style>
<g>
	<g>
		<path class="st0" d="M228.1,160.34c-0.09-0.23-0.19-0.45-0.28-0.67c-0.24-0.54-0.41-0.96-0.49-1.34c2.47-3.08,1.71-6.5,0.84-8.76
			c3.55-3.42,3.77-6.86,0.68-10.82c-0.71-0.91-1.46-1.77-2.19-2.6c-0.78-0.88-1.51-1.71-2.17-2.58
			c-3.95-5.22-7.68-11.14-11.75-18.62c-3.12-5.74-6.66-10.25-10.82-13.79c-4.71-4-10.14-7.38-16.15-10.04l-0.65-0.29
			c-1.63-0.72-3.17-1.4-4.45-2.41c-3.31-2.59-7.37-5.77-12.47-6.75c-0.2-0.81-0.31-1.63-0.42-2.48c-0.1-0.73-0.19-1.48-0.36-2.25
			c-1.01-4.73-0.56-9.09,1.39-13.34c0.56-1.2,1.17-2.45,1.88-3.8c1.12-2.1,1.59-4.08,1.45-6.03c-0.05-0.69,0.13-1.32,0.64-2.26
			c1.69-3.13,2.3-6.29,1.83-9.39c-1.34-8.72-5.71-15.95-13-21.5c-3.54-2.69-7.8-4-13.03-4c-1.82,0-3.79,0.15-6.21,0.47
			c-8.87,1.18-14.7,7.16-18.31,11.56c-0.7,0.86-1.18,1.16-2.11,1.35c-5.47,1.1-10.28,2.45-14.71,4.14
			c-3.08,1.17-3.78,3.08-3.93,4.11c-0.11,0.76-0.05,2.05,1.02,3.48c-3.96-0.99-7.52-1.65-10.86-2c-0.53-0.06-0.7-0.13-1.02-0.7
			c-3.13-5.38-7.82-9.52-13.96-12.32c-3.22-1.47-6.21-2.18-9.12-2.18c-0.46,0-0.93,0.02-1.39,0.06c-5.13,0.43-10.04,1.54-14.59,3.3
			c-6.84,2.65-12.26,7.21-16.12,13.55c-1.28,2.07-2.81,5.28-1.37,9.22c0.49,1.33,0.49,3.08,0,5.36c-0.31,1.46-0.59,3.57,0.28,5.75
			c-1.12,2.85-1.29,5.86-0.52,8.95c0.27,1.1,0.47,2.22,0.67,3.41c0.14,0.8,0.28,1.6,0.44,2.4c0.8,3.87,0.69,7.53-0.34,11.18
			c-0.36,1.28-0.63,2.57-0.9,3.82c-0.2,0.95-0.41,1.91-0.65,2.85c-0.11,0.44-0.21,0.88-0.3,1.33c-0.13,0.61-0.25,1.2-0.43,1.73
			c-6.89,1.16-11.72,5.56-14.38,13.08c-2.65,7.51-3.31,13.88-2.06,20.05c0.13,0.65,0.09,1.05-0.17,1.6
			c-1.48,3.1-1.64,6.48-0.47,9.75c0.8,2.28,0.3,4.44-1.63,7.02c-3.23,4.31-5.28,8.93-6.27,14.12c-0.32,1.71-0.48,3.49,0.52,4.93
			c0.72,1.03,1.81,1.56,3.01,1.89c0,0.41-0.06,0.86-0.17,1.38c-0.27,1.2-0.13,2.25,0,3.19c0.05,0.36,0.1,0.73,0.11,1.09
			c0.05,1.63-0.68,2.69-2.14,3.16c-4.15,1.32-4.78,3.39-4.53,7.01c0.39,5.46,1.44,10.85,2.46,16.06c0.21,1.08,0.42,2.15,0.62,3.22
			c0.68,3.66,1.45,7.76,4.8,10.67c-0.22,2.88,0.18,5.6,1.21,8.29c0.25,0.64,0.26,1.17,0.05,1.89c-2.05,6.97-2.49,14.25-1.29,21.64
			l0.07,0.39c0.04,0.22,0.1,0.55,0.12,0.58c-3.01,4.64,0.29,8.35,1.53,9.75c0.41,0.46,0.85,0.9,1.29,1.33
			c0.56,0.55,1.1,1.09,1.55,1.66c-0.52,2.76,0.09,5.4,0.64,7.81c0.52,2.23,1.12,4.76,1.44,7.26c0.19,1.46,0.22,2.93,0.26,4.49
			c0.04,1.54,0.07,3.13,0.27,4.73c0.56,4.55,0.17,9.02-0.24,13.76c-0.12,1.34-0.23,2.68-0.32,4.03c-0.25,3.63,0.29,6.57,1.7,9.24
			c1.11,2.1,2.71,3.81,4.89,5.2c-1.16,2.31-2.06,4.71-2.94,7.03c-0.31,0.83-0.63,1.67-0.95,2.5c-3.21,8.14-4.9,16.78-5,25.68
			c-0.04,3.18,0.22,6.35,0.46,9.16c0.76,8.96,2.53,16.76,5.4,23.85c1.71,4.23,3.36,8.51,5.05,12.9c0.06,0.14,0.12,0.29,0.18,0.44
			c0.11,0.25,0.27,0.63,0.29,0.67c-1.02,2.38-0.83,4.69-0.43,6.75c-3.06,3.45-3.16,4.35-2.23,9.35c0.24,1.25,0.12,2.21-0.39,3.19
			c-0.73,1.42-1.21,3.02-1.52,5.02c-0.84,5.36,2.12,9.88,7.36,11.25c3.36,0.88,6.92,1.32,10.59,1.32c1.44,0,2.93-0.07,4.42-0.21
			c3.72-0.34,8.9-1.28,12.91-5.21c3.29,2.61,7.05,4.03,10.7,5.41l0.88,0.33c3.82,1.44,7.85,2.15,12.31,2.15
			c3.17,0,6.6-0.36,10.48-1.1c2.69-0.5,4.51-2.07,5.41-4.65c2.08-5.98-0.49-12.81-5.86-15.55c-3.05-1.54-4.67-3.82-5.09-7.15
			c-0.33-2.61-0.78-6.07-3.21-8.67c0.96-3.1,1.4-6.12,1.82-9.04c0.13-0.87,0.25-1.74,0.39-2.61c1.15-7.17,1.93-14.48,2.69-21.55
			c0.52-4.82,1.05-9.8,1.7-14.68c0.51-3.91,0.96-7.88,1.4-11.73c0.3-2.67,0.61-5.33,0.93-8c0.08-0.62,0.28-1.3,0.61-2.02
			c1.47-3.24,2.15-6.66,2.01-10.17l-0.02-0.44c-0.01-0.21-0.03-0.5-0.03-0.69c0.13-0.02,0.28-0.03,0.39-0.04
			c0.33-0.03,0.7-0.07,1.08-0.16c0.87-0.2,2.91-0.67,3.45-2.69c0.13-0.48,0.37-1,0.62-1.54c0.54-1.18,1.15-2.52,1.09-4.2
			c-0.11-3.02,0.21-6.12,0.51-9.13l0.04-0.37c0.13-1.33,0.29-2.74,0.47-4.22c0.67,2.7,1.44,5.35,2.2,7.94
			c0.69,2.35,1.4,4.78,2.01,7.18c0.15,0.6,0.32,1.19,0.48,1.79c0.65,2.36,1.27,4.58,0.92,6.74c-0.41,2.57-0.28,5.04,0.4,7.33
			c1.41,4.81,3.49,9.5,8.95,11.55c0.44,1.08,0.79,2.22,1.16,3.41c0.21,0.67,0.42,1.35,0.64,2.02c0.11,0.34,0.22,0.69,0.33,1.04
			c0.4,1.3,0.84,2.77,1.74,4.02c1.16,1.63,1.67,3.56,2.21,5.61l1.29,4.79c1.89,6.97,3.84,14.17,5.93,21.21
			c1.21,4.1,1.18,7.9-0.09,11.61c-1.5,4.34-2.03,8.89-1.6,13.86c-1.94,1.81-3.43,4.82-1.56,9.64c1.27,3.28,1.76,6.66,1.5,10.34
			c-0.13,1.96,0.3,3.83,1.3,5.58c2.89,5.01,6.59,9.84,12.01,15.66c1.75,1.87,3.95,2.25,5.45,2.37c0.8,0.07,1.62,0.1,2.42,0.1
			c5.14,0,10.46-1.31,16.76-4.12c6.28-2.81,8.56-8.33,5.96-14.43c-0.59-1.37-1.35-2.97-2.42-4.45c-0.73-0.99-1.17-2.16-1.47-3.91
			c-0.3-1.75-0.58-3.52-0.86-5.28c-0.83-5.23-1.7-10.63-3.11-16.1c2.1-3.92,1.96-8.08,1.83-12.12l-0.01-0.33
			c-0.07-2.21-1.16-4.07-3.1-5.26l-0.25-0.14c-0.23-0.13-0.34-0.19-0.44-0.32l0-1.19c0.01-1.5,0.01-3.2-0.01-4.91
			c-0.01-0.42,0.09-0.62,0.43-0.85c2.81-1.91,4.15-4.75,5.18-7.26c1.66-3.99,1.25-7.89-1.17-11.25c-0.73-1.02-0.84-1.78-0.45-3
			c3.25-9.86,4.66-20.57,4.57-34.74c-0.05-7.43-0.47-13.55-1.32-19.26c-0.22-1.5-0.27-2.87-0.16-4.13c2.75-0.64,4.1-1.77,5.66-4.47
			c0.95-1.65,1.53-3.39,1.93-4.72c0.45-1.52,0.89-3.04,1.33-4.56c0.83-2.87,1.69-5.83,2.59-8.72c1.52-4.9,3.25-10.06,6.05-14.59
			c1.11-1.8,1.62-3.59,1.58-5.48c-0.01-0.24,0-0.44,0.01-0.6c1.55,0.8,3.05,1.2,4.46,1.2c2.05,0,4.95-0.86,7.14-4.96
			c0.95-1.8,1.58-3.78,1.93-6.06c0.65-4.28,1-8.71,1.08-13.54c0.03-2.05,0.34-3.84,0.96-5.44c1.36-3.53,3.26-7.18,5.82-11.14h0.88
			c0.29,0.81,0.47,1.71,0.67,2.64c0.42,2.05,0.91,4.38,2.65,6.36l1,1.14l1.37-0.66c2.06-0.99,2.42-2.81,2.65-3.92
			c0.09-0.44,0.19-0.88,0.29-1.32c0.38-1.72,0.78-3.51,0.93-5.35c0.55-6.74,0.83-13.91-2.26-20.79c-0.82-1.81-1.3-3.85-1.78-5.83
			c-0.12-0.5-0.24-0.99-0.36-1.48c0.15-0.09,0.31-0.17,0.5-0.26c0.2-0.1,0.4-0.2,0.59-0.31c0.73-0.41,1.53-0.75,2.37-1.1
			c1.29-0.54,2.63-1.1,3.9-2.01c3.17-2.28,4.59-4.99,4.48-8.52C230.88,169.75,229.91,164.93,228.1,160.34z M62.7,325.8
			c-0.23,3.13-0.93,6.33-2.21,10.1l-0.17,0.51c-1.66,4.9-3.38,9.96-4.17,15.29c-0.47,3.22-0.51,6.62-0.12,11.03
			c0.58,6.71,1.85,13.37,3.08,19.81c0.83,4.35,1.69,8.85,2.32,13.29c0.02,0.16,0.05,0.32,0.08,0.48c-0.24,0.12-0.5,0.24-0.76,0.36
			c-0.6,0.28-1.29,0.59-1.96,1.02c-3.73,2.45-3.82,5.68-3.24,7.95c0.2,0.81,0.38,1.62,0.55,2.43c0.03,0.15,0.06,0.29,0.09,0.44
			c-0.89-1.11-1.36-2.22-1.26-3.68c0.21-3.06-0.97-5.64-2.05-7.98c-0.38-0.83-0.61-1.44-0.63-2.09c-0.2-4.86,0.15-9.82,0.48-14.63
			l0.16-2.28c0.17-2.59,0.46-5.23,0.74-7.79c0.24-2.21,0.5-4.5,0.67-6.77c0.44-5.46,1.21-11.01,1.95-16.36
			c0.2-1.43,0.4-2.86,0.59-4.29c0.08-0.61,0.18-1.22,0.28-1.83c0.19-1.19,0.4-2.42,0.47-3.69c0.15-2.49,0.83-4.63,2.14-6.73
			c1.6-2.57,2.09-5.31,2.39-8.02c0.13,0.31,0.27,0.62,0.41,0.92C62.84,323.96,62.78,324.77,62.7,325.8z M127.22,85.89
			c-1.38,2.06-3.53,2.94-6.03,3.95l-0.66,0.27c-1.45,0.59-2.87,1.25-4.24,1.88l-1.31,0.6c-4.21,1.94-7.41,5.1-9.5,9.4
			c-0.12,0.25-0.23,0.5-0.35,0.76c-0.11,0.26-0.22,0.5-0.34,0.74c-1.55-1.17-3.18-2.16-4.77-3.13c-0.37-0.23-0.75-0.45-1.13-0.69
			l-0.02-0.03c-3.35-4.46-8.16-6.03-12.86-7.06c-0.79-0.17-1.54-0.26-2.26-0.26c-1.14,0-2.21,0.22-3.19,0.66l-0.24-4.44
			c0.14-0.08,0.31-0.16,0.52-0.25c0.23-0.1,0.45-0.21,0.66-0.32c2.34-1.24,5.33-3.02,7.73-5.83c1.17-1.37,3.12-3.67,2.21-6.97
			c0-0.02-0.02-0.17,0.24-0.7c0.23-0.48,0.93-1.94,0.36-3.62c-0.57-1.67-0.26-2.69,1.13-3.67c0.62-0.45,1.05-1.03,1.34-1.44
			c2.42-3.26,2.31-5.99-0.39-8.79c2.87-0.42,5.81-0.9,8.65-1.75c2.27-0.69,4.66-1.49,6.79-3.02c2.15-1.56,2.55-3.23,2.51-4.35
			c-0.02-0.58-0.17-1.3-0.63-2.06c0.68,0.13,1.38,0.22,2.1,0.26c0.27,0.02,0.54,0.02,0.81,0.02c1.45,0,2.85-0.22,4.21-0.43
			c0.46-0.07,0.92-0.14,1.38-0.21c0.08,0.25,0.17,0.49,0.25,0.71c0.19,0.54,0.37,1.03,0.49,1.49l-0.22,0.3
			c-1.19,1.61-2.32,3.14-3.57,4.53c-2.39,2.63-2.39,5.71,0,8.47c0.26,0.3,0.53,0.52,0.77,0.71c-0.83,1.15-1.39,2.26-1.73,3.43
			c-0.25,0.91-0.93,3.33,0.83,5.25c0.72,0.79,1.64,1.21,2.65,1.21c0.53,0,1.01-0.11,1.43-0.25c0.14,0.21,0.28,0.42,0.42,0.63
			l-0.01,0.05c-1.01,4.94-0.18,6.74,4.23,9.13c1.59,0.87,3.22,1.66,4.82,2.42C129.19,83.96,128.05,84.65,127.22,85.89z"/>
		<path class="st0" d="M98.5,24.93c0.56,1.02,1.19,1.99,1.79,2.93c0.67,1.04,1.31,2.03,1.84,3.04c0.04,0.08,0.1,0.27,0.15,0.44
			c0.23,0.76,0.77,2.55,2.94,2.86c0.2,0.03,0.4,0.04,0.58,0.04c2.01,0,3.18-1.46,3.78-2.21c3.07-3.88,6.25-7.89,8.97-12.18
			l0.41-0.64c1.25-1.95,2.54-3.97,3.12-6.52c0.56-2.43-0.16-4.49-2.19-6.27c-1.06-0.92-2.26-1.39-3.57-1.39
			c-1.45,0-2.76,0.58-3.73,1.09c-2.2,1.14-3.95,2.76-5.4,4.42c-0.07-0.1-0.14-0.21-0.21-0.3c-0.82-1.13-2.12-2.77-3.98-3.96
			c-0.97-0.62-2.28-1.34-3.84-1.34c-1.04,0-2.04,0.32-2.95,0.96c-1.47,1.03-3.1,2.99-2.5,6.53C94.54,17.21,96.6,21.43,98.5,24.93z"
			/>
	</g>
	<path class="st0" d="M226.24,161.08c-0.43-1.08-1.05-2.13-0.94-3.48c2.54-2.6,1.86-5.54,0.4-8.72c0.33-0.22,0.67-0.37,0.93-0.61
		c2.95-2.75,3.16-5.07,0.64-8.3c-1.39-1.79-3.01-3.4-4.38-5.2c-4.5-5.95-8.35-12.32-11.91-18.87c-2.7-4.97-6.04-9.55-10.36-13.22
		c-4.71-4-9.99-7.22-15.67-9.74c-1.9-0.85-3.85-1.64-5.51-2.95c-3.87-3.03-7.78-5.98-12.78-6.54c-0.8-2.13-0.78-4.16-1.19-6.1
		c-1.08-5.04-0.62-9.91,1.53-14.6c0.61-1.32,1.26-2.62,1.93-3.9c0.83-1.56,1.35-3.18,1.22-4.96c-0.08-1.22,0.29-2.25,0.88-3.34
		c1.36-2.52,2.05-5.27,1.61-8.14c-1.29-8.41-5.52-15.1-12.23-20.21c-5.34-4.06-11.6-3.95-17.76-3.14
		c-7.25,0.96-12.55,5.39-17.03,10.85c-0.92,1.12-1.78,1.74-3.26,2.04c-4.89,0.98-9.73,2.27-14.39,4.05
		c-3.35,1.27-3.54,3.69-0.64,5.84c1.86,1.38,4,2.05,6.35,2.18c2.55,0.15,5.01-0.59,7.76-0.78c0.33,1.72,1.22,3.21,1.38,4.88
		c-1.48,1.99-2.84,3.91-4.43,5.67c-1.73,1.9-1.64,3.89,0.03,5.82c0.57,0.66,1.61,0.92,1.76,2.09c-0.98,1.12-1.87,2.39-2.3,3.89
		c-0.32,1.15-0.52,2.38,0.38,3.36c0.95,1.04,2,0.37,3.01,0.01c0.15-0.05,0.34,0.04,0.51,0.07c0.55,0.82,1.09,1.64,1.61,2.41
		c-0.07,0.36-0.11,0.63-0.16,0.9c-0.83,4.06-0.46,4.97,3.23,6.97c2.07,1.13,4.21,2.13,6.34,3.14c0.81,0.39,1.49,0.77,0.91,2
		c-1.64,0.6-3.74,0.91-4.83,2.55c-1.86,2.79-4.74,3.79-7.59,4.96c-1.85,0.76-3.65,1.62-5.47,2.45c-3.87,1.78-6.67,4.62-8.53,8.45
		c-0.54,1.12-0.92,2.37-2.11,3.53c-2.27-2.06-4.94-3.54-7.54-5.15c-0.15-0.09-0.25-0.26-0.36-0.4c-2.93-3.9-7.19-5.32-11.69-6.31
		c-1.95-0.43-3.78-0.27-5.42,1.01c-0.34,0.26-0.78,0.47-1.46,0.09c-0.14-2.57-0.28-5.26-0.42-7.89c0.58-0.88,1.5-1.12,2.29-1.54
		c2.66-1.41,5.16-3.04,7.14-5.36c1.26-1.48,2.4-2.99,1.81-5.14c-0.2-0.72,0.04-1.43,0.36-2.1c0.32-0.67,0.52-1.37,0.27-2.11
		c-0.83-2.43-0.3-4.42,1.85-5.94c0.36-0.26,0.64-0.64,0.91-1.01c1.97-2.65,1.77-4.37-0.66-6.64c-0.77-0.72-1.88-1.1-2.44-2.34
		c4.27-0.67,8.41-1.09,12.39-2.28c2.18-0.66,4.33-1.38,6.2-2.73c2.29-1.66,2.26-3.66-0.16-5.16c-1.15-0.71-2.41-1.22-3.75-1.57
		c-3.7-0.95-7.43-1.71-11.22-2.11c-1.22-0.13-1.93-0.62-2.54-1.68c-3.07-5.28-7.56-9-13.06-11.51c-3.01-1.37-6.23-2.22-9.52-1.95
		c-4.79,0.4-9.51,1.42-14.03,3.17c-6.49,2.52-11.54,6.82-15.14,12.73c-1.38,2.24-2.24,4.62-1.2,7.48c0.74,2.01,0.54,4.32,0.08,6.47
		c-0.39,1.83-0.44,3.58,0.51,5.29c-1.28,2.76-1.5,5.58-0.77,8.51c0.48,1.94,0.73,3.93,1.13,5.88c0.84,4.07,0.76,8.1-0.37,12.12
		c-0.61,2.18-0.98,4.43-1.54,6.63c-0.38,1.47-0.51,3.03-1.3,4.38c-7.37,0.84-11.55,5.38-13.86,11.92
		c-2.17,6.14-3.31,12.45-1.99,18.98c0.21,1.02,0.15,1.87-0.32,2.86c-1.26,2.65-1.36,5.51-0.39,8.23c1.21,3.44-0.06,6.4-1.92,8.88
		c-3.02,4.03-4.97,8.4-5.9,13.29c-0.62,3.3,0.04,4.22,3.32,4.78c0.36,1.15,0.27,2.34,0.02,3.48c-0.29,1.3,0.12,2.52,0.16,3.78
		c0.07,2.49-1.19,4.37-3.53,5.12c-2.93,0.93-3.36,1.82-3.14,4.96c0.46,6.44,1.85,12.73,3.05,19.06c0.72,3.85,1.47,7.71,4.94,10.15
		c-0.39,3.02-0.04,5.8,0.98,8.46c0.42,1.09,0.42,2.08,0.1,3.17c-2.01,6.82-2.37,13.74-1.23,20.75c0.13,0.8,0.39,1.62-0.11,2.38
		c-1.87,2.88-0.58,5.16,1.35,7.33c1.14,1.28,2.53,2.35,3.5,3.91c-0.75,2.63-0.15,5.2,0.44,7.77c0.58,2.47,1.15,4.93,1.48,7.46
		c0.4,3.08,0.15,6.18,0.53,9.23c0.75,6.1-0.13,12.12-0.55,18.17c-0.2,2.88,0.1,5.57,1.47,8.17c1.23,2.33,3.12,3.91,5.22,5.05
		c0.23,0.78,0.03,1.29-0.21,1.78c-1.57,3.08-2.66,6.36-3.92,9.57c-3.17,8.03-4.76,16.36-4.86,24.97c-0.04,3,0.2,5.97,0.45,8.96
		c0.68,8.01,2.23,15.79,5.26,23.27c1.73,4.29,3.4,8.61,5.06,12.92c0.33,0.84,0.84,1.71,0.45,2.63c-0.94,2.2-0.58,4.43-0.1,6.54
		c-3.26,3.59-3.32,3.65-2.43,8.4c0.3,1.6,0.17,3.03-0.57,4.47c-0.71,1.39-1.09,2.89-1.33,4.42c-0.69,4.39,1.62,7.89,5.89,9.01
		c4.71,1.23,9.53,1.5,14.32,1.06c4.95-0.46,9.64-1.83,12.93-6.02c3.57,3.46,8.05,5,12.45,6.67c7.12,2.69,14.39,2.35,21.72,0.95
		c1.98-0.37,3.22-1.42,3.89-3.34c1.72-4.94-0.25-10.75-4.88-13.11c-3.69-1.87-5.67-4.75-6.17-8.68c-0.41-3.2-0.93-6.29-3.53-8.33
		c1.52-4.27,1.88-8.45,2.54-12.56c1.92-12,2.79-24.13,4.38-36.17c0.86-6.56,1.53-13.14,2.33-19.71c0.11-0.89,0.4-1.78,0.77-2.6
		c1.34-2.95,1.96-6.02,1.83-9.26c-0.04-0.97-0.24-2.02,0.56-2.8c0.75-0.52,1.62-0.37,2.4-0.56c0.82-0.19,1.75-0.45,1.97-1.28
		c0.48-1.73,1.7-3.24,1.63-5.13c-0.12-3.28,0.23-6.53,0.56-9.77c0.49-4.88,1.14-9.74,2.42-14.86c0.39,2.25,0.7,4.13,1.04,6
		c1.21,6.62,3.51,12.96,5.16,19.47c0.77,3.06,1.95,6.14,1.44,9.34c-0.36,2.23-0.27,4.38,0.34,6.45c1.36,4.62,3.25,8.92,8.51,10.51
		c0.95,2.05,1.49,4.26,2.21,6.4c0.52,1.55,0.88,3.25,1.8,4.53c1.59,2.23,2.1,4.76,2.79,7.28c2.26,8.32,4.48,16.66,6.93,24.92
		c1.29,4.36,1.34,8.57-0.12,12.83c-1.57,4.54-1.94,9.21-1.39,14.07c-2.95,2.12-2.94,5.09-1.79,8.05c1.41,3.65,1.9,7.35,1.63,11.2
		c-0.11,1.6,0.25,3.06,1.04,4.44c3.24,5.62,7.34,10.57,11.74,15.3c1.1,1.18,2.53,1.61,4.15,1.74c6.46,0.53,12.46-1.29,18.2-3.85
		c4.52-2.02,7.41-6.02,4.94-11.81c-0.62-1.43-1.29-2.81-2.2-4.06c-1.05-1.43-1.53-3.03-1.83-4.76c-1.24-7.24-2.14-14.55-4.15-22
		c2.31-3.73,2.1-7.93,1.96-12.1c-0.05-1.54-0.77-2.78-2.12-3.61c-0.54-0.32-1.16-0.54-1.67-1.71c0-1.83,0.03-4.18-0.01-6.54
		c-0.02-1.11,0.43-1.95,1.31-2.54c2.3-1.56,3.45-3.92,4.46-6.37c1.35-3.26,1.1-6.47-0.95-9.32c-1.13-1.58-1.3-3.01-0.72-4.79
		c3.65-11.08,4.54-22.57,4.47-34.1c-0.04-6.32-0.36-12.69-1.3-18.98c-0.3-2.04-0.35-4.11,0.04-6.12c3.22-0.5,4.2-1.16,5.71-3.77
		c0.78-1.35,1.3-2.81,1.74-4.29c1.31-4.43,2.56-8.89,3.93-13.31c1.62-5.21,3.36-10.37,6.26-15.05c0.82-1.33,1.32-2.76,1.28-4.37
		c-0.04-1.29,0.17-2.53,1.55-3.2c0.4,0.22,0.71,0.4,1.02,0.57c3.99,2.21,7.14,1.27,9.27-2.73c0.9-1.71,1.43-3.54,1.72-5.43
		c0.67-4.4,0.99-8.83,1.06-13.27c0.03-2.12,0.34-4.17,1.09-6.13c1.7-4.42,4.02-8.52,6.6-12.42h3.25c1.7,3.07,1.08,6.9,3.53,9.68
		c1.18-0.57,1.37-1.59,1.56-2.53c0.45-2.13,1-4.26,1.18-6.42c0.55-6.72,0.8-13.37-2.09-19.8c-1.28-2.84-1.78-6.02-2.55-8.77
		c0.81-1.04,1.63-1.26,2.34-1.66c1.97-1.12,4.22-1.66,6.09-3c2.35-1.69,3.75-3.72,3.65-6.83
		C228.89,170.28,228.02,165.6,226.24,161.08z M63.37,397.52c-1.01,0.74-2.35,1.1-3.49,1.84c-2.17,1.43-3.05,3.24-2.4,5.79
		c0.4,1.58,0.68,3.19,1.07,4.78c0.25,1.03,0.3,1.97-1,2.76c-2.38-2.17-4.88-4.27-4.62-8c0.18-2.58-0.85-4.79-1.87-7.01
		c-0.42-0.92-0.77-1.81-0.81-2.84c-0.23-5.73,0.26-11.42,0.64-17.12c0.32-4.87,1.04-9.72,1.42-14.59
		c0.56-6.96,1.62-13.85,2.55-20.76c0.24-1.8,0.63-3.58,0.74-5.38c0.17-2.79,0.95-5.28,2.44-7.67c2.09-3.35,2.03-7.28,2.5-11.04
		c0.16-1.33-0.04-2.72,0.81-4.15c0.85,2.98,1.82,5.7,3.01,8.34c0.51,1.14,0.42,2.3,0.33,3.48c-0.27,3.64-1.14,7.14-2.31,10.59
		c-1.72,5.07-3.47,10.12-4.26,15.45c-0.52,3.53-0.42,7.05-0.11,10.57c0.96,11.14,3.83,21.96,5.39,32.99
		C63.49,396.18,63.74,396.78,63.37,397.52z"/>
	<path d="M226.24,161.08c-0.43-1.08-1.05-2.13-0.94-3.48c2.54-2.6,1.86-5.54,0.4-8.72c0.33-0.22,0.67-0.37,0.93-0.61
		c2.95-2.75,3.16-5.07,0.64-8.3c-1.39-1.79-3.01-3.4-4.38-5.2c-4.5-5.95-8.35-12.32-11.91-18.87c-2.7-4.97-6.04-9.55-10.36-13.22
		c-4.71-4-9.99-7.22-15.67-9.74c-1.9-0.85-3.85-1.64-5.51-2.95c-3.87-3.03-7.78-5.98-12.78-6.54c-0.8-2.13-0.78-4.16-1.19-6.1
		c-1.08-5.04-0.62-9.91,1.53-14.6c0.61-1.32,1.26-2.62,1.93-3.9c0.83-1.56,1.35-3.18,1.22-4.96c-0.08-1.22,0.29-2.25,0.88-3.34
		c1.36-2.52,2.05-5.27,1.61-8.14c-1.29-8.41-5.52-15.1-12.23-20.21c-5.34-4.06-11.6-3.95-17.76-3.14
		c-7.25,0.96-12.55,5.39-17.03,10.85c-0.92,1.12-1.78,1.74-3.26,2.04c-4.89,0.98-9.73,2.27-14.39,4.05
		c-3.35,1.27-3.54,3.69-0.64,5.84c1.86,1.38,4,2.05,6.35,2.18c2.55,0.15,5.01-0.59,7.76-0.78c0.33,1.72,1.22,3.21,1.38,4.88
		c-1.48,1.99-2.84,3.91-4.43,5.67c-1.73,1.9-1.64,3.89,0.03,5.82c0.57,0.66,1.61,0.92,1.76,2.09c-0.98,1.12-1.87,2.39-2.3,3.89
		c-0.32,1.15-0.52,2.38,0.38,3.36c0.95,1.04,2,0.37,3.01,0.01c0.15-0.05,0.34,0.04,0.51,0.07c0.55,0.82,1.09,1.64,1.61,2.41
		c-0.07,0.36-0.11,0.63-0.16,0.9c-0.83,4.06-0.46,4.97,3.23,6.97c2.07,1.13,4.21,2.13,6.34,3.14c0.81,0.39,1.49,0.77,0.91,2
		c-1.64,0.6-3.74,0.91-4.83,2.55c-1.86,2.79-4.74,3.79-7.59,4.96c-1.85,0.76-3.65,1.62-5.47,2.45c-3.87,1.78-6.67,4.62-8.53,8.45
		c-0.54,1.12-0.92,2.37-2.11,3.53c-2.27-2.06-4.94-3.54-7.54-5.15c-0.15-0.09-0.25-0.26-0.36-0.4c-2.93-3.9-7.19-5.32-11.69-6.31
		c-1.95-0.43-3.78-0.27-5.42,1.01c-0.34,0.26-0.78,0.47-1.46,0.09c-0.14-2.57-0.28-5.26-0.42-7.89c0.58-0.88,1.5-1.12,2.29-1.54
		c2.66-1.41,5.16-3.04,7.14-5.36c1.26-1.48,2.4-2.99,1.81-5.14c-0.2-0.72,0.04-1.43,0.36-2.1c0.32-0.67,0.52-1.37,0.27-2.11
		c-0.83-2.43-0.3-4.42,1.85-5.94c0.36-0.26,0.64-0.64,0.91-1.01c1.97-2.65,1.77-4.37-0.66-6.64c-0.77-0.72-1.88-1.1-2.44-2.34
		c4.27-0.67,8.41-1.09,12.39-2.28c2.18-0.66,4.33-1.38,6.2-2.73c2.29-1.66,2.26-3.66-0.16-5.16c-1.15-0.71-2.41-1.22-3.75-1.57
		c-3.7-0.95-7.43-1.71-11.22-2.11c-1.22-0.13-1.93-0.62-2.54-1.68c-3.07-5.28-7.56-9-13.06-11.51c-3.01-1.37-6.23-2.22-9.52-1.95
		c-4.79,0.4-9.51,1.42-14.03,3.17c-6.49,2.52-11.54,6.82-15.14,12.73c-1.38,2.24-2.24,4.62-1.2,7.48c0.74,2.01,0.54,4.32,0.08,6.47
		c-0.39,1.83-0.44,3.58,0.51,5.29c-1.28,2.76-1.5,5.58-0.77,8.51c0.48,1.94,0.73,3.93,1.13,5.88c0.84,4.07,0.76,8.1-0.37,12.12
		c-0.61,2.18-0.98,4.43-1.54,6.63c-0.38,1.47-0.51,3.03-1.3,4.38c-7.37,0.84-11.55,5.38-13.86,11.92
		c-2.17,6.14-3.31,12.45-1.99,18.98c0.21,1.02,0.15,1.87-0.32,2.86c-1.26,2.65-1.36,5.51-0.39,8.23c1.21,3.44-0.06,6.4-1.92,8.88
		c-3.02,4.03-4.97,8.4-5.9,13.29c-0.62,3.3,0.04,4.22,3.32,4.78c0.36,1.15,0.27,2.34,0.02,3.48c-0.29,1.3,0.12,2.52,0.16,3.78
		c0.07,2.49-1.19,4.37-3.53,5.12c-2.93,0.93-3.36,1.82-3.14,4.96c0.46,6.44,1.85,12.73,3.05,19.06c0.72,3.85,1.47,7.71,4.94,10.15
		c-0.39,3.02-0.04,5.8,0.98,8.46c0.42,1.09,0.42,2.08,0.1,3.17c-2.01,6.82-2.37,13.74-1.23,20.75c0.13,0.8,0.39,1.62-0.11,2.38
		c-1.87,2.88-0.58,5.16,1.35,7.33c1.14,1.28,2.53,2.35,3.5,3.91c-0.75,2.63-0.15,5.2,0.44,7.77c0.58,2.47,1.15,4.93,1.48,7.46
		c0.4,3.08,0.15,6.18,0.53,9.23c0.75,6.1-0.13,12.12-0.55,18.17c-0.2,2.88,0.1,5.57,1.47,8.17c1.23,2.33,3.12,3.91,5.22,5.05
		c0.23,0.78,0.03,1.29-0.21,1.78c-1.57,3.08-2.66,6.36-3.92,9.57c-3.17,8.03-4.76,16.36-4.86,24.97c-0.04,3,0.2,5.97,0.45,8.96
		c0.68,8.01,2.23,15.79,5.26,23.27c1.73,4.29,3.4,8.61,5.06,12.92c0.33,0.84,0.84,1.71,0.45,2.63c-0.94,2.2-0.58,4.43-0.1,6.54
		c-3.26,3.59-3.32,3.65-2.43,8.4c0.3,1.6,0.17,3.03-0.57,4.47c-0.71,1.39-1.09,2.89-1.33,4.42c-0.69,4.39,1.62,7.89,5.89,9.01
		c4.71,1.23,9.53,1.5,14.32,1.06c4.95-0.46,9.64-1.83,12.93-6.02c3.57,3.46,8.05,5,12.45,6.67c7.12,2.69,14.39,2.35,21.72,0.95
		c1.98-0.37,3.22-1.42,3.89-3.34c1.72-4.94-0.25-10.75-4.88-13.11c-3.69-1.87-5.67-4.75-6.17-8.68c-0.41-3.2-0.93-6.29-3.53-8.33
		c1.52-4.27,1.88-8.45,2.54-12.56c1.92-12,2.79-24.13,4.38-36.17c0.86-6.56,1.53-13.14,2.33-19.71c0.11-0.89,0.4-1.78,0.77-2.6
		c1.34-2.95,1.96-6.02,1.83-9.26c-0.04-0.97-0.24-2.02,0.56-2.8c0.75-0.52,1.62-0.37,2.4-0.56c0.82-0.19,1.75-0.45,1.97-1.28
		c0.48-1.73,1.7-3.24,1.63-5.13c-0.12-3.28,0.23-6.53,0.56-9.77c0.49-4.88,1.14-9.74,2.42-14.86c0.39,2.25,0.7,4.13,1.04,6
		c1.21,6.62,3.51,12.96,5.16,19.47c0.77,3.06,1.95,6.14,1.44,9.34c-0.36,2.23-0.27,4.38,0.34,6.45c1.36,4.62,3.25,8.92,8.51,10.51
		c0.95,2.05,1.49,4.26,2.21,6.4c0.52,1.55,0.88,3.25,1.8,4.53c1.59,2.23,2.1,4.76,2.79,7.28c2.26,8.32,4.48,16.66,6.93,24.92
		c1.29,4.36,1.34,8.57-0.12,12.83c-1.57,4.54-1.94,9.21-1.39,14.07c-2.95,2.12-2.94,5.09-1.79,8.05c1.41,3.65,1.9,7.35,1.63,11.2
		c-0.11,1.6,0.25,3.06,1.04,4.44c3.24,5.62,7.34,10.57,11.74,15.3c1.1,1.18,2.53,1.61,4.15,1.74c6.46,0.53,12.46-1.29,18.2-3.85
		c4.52-2.02,7.41-6.02,4.94-11.81c-0.62-1.43-1.29-2.81-2.2-4.06c-1.05-1.43-1.53-3.03-1.83-4.76c-1.24-7.24-2.14-14.55-4.15-22
		c2.31-3.73,2.1-7.93,1.96-12.1c-0.05-1.54-0.77-2.78-2.12-3.61c-0.54-0.32-1.16-0.54-1.67-1.71c0-1.83,0.03-4.18-0.01-6.54
		c-0.02-1.11,0.43-1.95,1.31-2.54c2.3-1.56,3.45-3.92,4.46-6.37c1.35-3.26,1.1-6.47-0.95-9.32c-1.13-1.58-1.3-3.01-0.72-4.79
		c3.65-11.08,4.54-22.57,4.47-34.1c-0.04-6.32-0.36-12.69-1.3-18.98c-0.3-2.04-0.35-4.11,0.04-6.12c3.22-0.5,4.2-1.16,5.71-3.77
		c0.78-1.35,1.3-2.81,1.74-4.29c1.31-4.43,2.56-8.89,3.93-13.31c1.62-5.21,3.36-10.37,6.26-15.05c0.82-1.33,1.32-2.76,1.28-4.37
		c-0.04-1.29,0.17-2.53,1.55-3.2c0.4,0.22,0.71,0.4,1.02,0.57c3.99,2.21,7.14,1.27,9.27-2.73c0.9-1.71,1.43-3.54,1.72-5.43
		c0.67-4.4,0.99-8.83,1.06-13.27c0.03-2.12,0.34-4.17,1.09-6.13c1.7-4.42,4.02-8.52,6.6-12.42h3.25c1.7,3.07,1.08,6.9,3.53,9.68
		c1.18-0.57,1.37-1.59,1.56-2.53c0.45-2.13,1-4.26,1.18-6.42c0.55-6.72,0.8-13.37-2.09-19.8c-1.28-2.84-1.78-6.02-2.55-8.77
		c0.81-1.04,1.63-1.26,2.34-1.66c1.97-1.12,4.22-1.66,6.09-3c2.35-1.69,3.75-3.72,3.65-6.83
		C228.89,170.28,228.02,165.6,226.24,161.08z M134.59,24.98c8.04-4.6,16.18-4.7,24.34-0.22c1.4,0.77,2.18,2.14,3.2,3.29
		c4.23,4.74,6.81,10.21,7.52,16.55c0.18,1.66-0.1,3.21-0.82,4.85c-1.32-0.35-2.01-1.27-2.52-2.3c-0.97-1.94-2.17-3.55-4.47-4.01
		c-0.41-0.08-0.77-0.47-1.11-0.75c-5.42-4.45-11.8-6.63-18.59-7.81c-4.28-0.75-8.56-1.45-12.91-1.7c-0.56-0.04-1.09-0.16-1.52-1.04
		C129.67,29.35,131.66,26.66,134.59,24.98z M115.77,40.49c-2.55,0.31-4.2-0.13-6.63-1.69c0.34-0.67,1.04-0.65,1.61-0.71
		c3.26-0.34,6.44-1.1,9.44-2.36c3.74-1.58,7.38-1.07,11.12,0.11C126.26,37.9,121.21,39.85,115.77,40.49z M128.87,76.4
		c-0.88-0.44-1.86-0.74-2.53-1.48c-0.56-0.95,0-1.8,0.17-2.66c0.2-1.01,0.31-2-0.4-2.86c-1.2-1.46-0.54-2.84,0.04-4.5
		c1.21,0.89,2.22,1.64,3.23,2.38c1.35,1,2.86,1.62,4.52,1.74c2.2,0.16,3.2-1.2,2.52-3.27c-0.23-0.71-0.57-1.35-1.13-1.84
		c-2.71-2.37-5.65-4.39-9.42-4.28c-2.19,0.07-3.63-0.72-4.58-2.55c-0.02-0.89,0.68-1.3,1.1-1.86c2.19-2.94,3.41-6.12,3.06-9.89
		c-0.3-3.3-0.16-3.3,2.88-4.53c3.37-1.37,6.87-2.33,10.31-3.48c0.43-0.15,0.85-0.29,1.32-0.2c6.4,1.35,12.73,2.91,17.9,6.48
		c0.86,1.06-0.12,1.95,0.59,2.72c0.29,0.28,0.75,0.27,1.2,0.33c2.31,0.34,3.15,1.21,3.3,3.52c0.18,2.74,0.06,5.43-1.37,7.92
		c-1.51,2.64-2.91,3.04-5.49,1.53c-0.81-0.48-1.59-1.35-2.6-0.36c1,4.26,4.25,5.68,8.56,3.7c-0.65,8.48-0.64,16.85,2.77,24.68
		c-8.22,11.55-23.45,11.25-28.77,3.41c0.48-2.2,1.21-4.24,1.36-6.45c0.14-2.14-0.49-3.6-2.37-4.74
		C133.02,78.63,130.99,77.45,128.87,76.4z M106.95,115.22c1.48,1.79,1.26,4.06,1.84,6.42c2.72-0.81,3.24-3.27,4.35-5.01
		c1.01-1.58,2.88-3.07,2.12-5.57c-2.35,0.12-2.97,2.2-4.54,3.25c-0.97-1.71-1.95-3.41-3.06-5.36c1.75-2.2,2.79-4.93,4.35-7.35
		c1.38-2.13,3.4-3.51,5.55-4.71c2.39-1.33,4.94-2.28,7.52-3.17c2.34-0.8,4.59-1.7,6.03-3.92c0.43-0.66,1.09-1.19,1.96-1.31
		c0.07,0.24,0.19,0.42,0.16,0.57c-0.37,1.76-1.13,3.5-0.02,5.27c1.43,2.28,3.26,4.06,5.8,5.14c3.57,1.5,7.3,1.48,11,1.07
		c4.08-0.45,7.98-1.71,11.45-4.02c2.52-1.67,4.35-3.84,4.89-6.89c0.18-1.03,0.86-1.78,1.34-2.78c2.98,0.98,5.56,2.64,7.99,4.5
		c3.05,2.34,6.4,4.08,9.88,5.69c6.29,2.93,11.91,6.77,16.5,12.17c3.7,4.35,6.56,9.11,9.08,14.16c3.34,6.69,7.34,12.94,12.38,18.5
		c1.61,1.78,1.58,1.99-0.06,4.29c-1.59-1.15-2.51-2.84-3.31-4.48c-4.51-9.37-11.14-17.17-18.09-24.73
		c-0.68-0.73-1.26-1.55-1.94-2.28c-0.66-0.71-1.33-1.48-2.61-1.19c-0.2,1.51,0.85,2.38,1.56,3.34c4.33,5.82,8.77,11.57,12.76,17.64
		c1.45,2.19,2.76,4.48,4.1,6.75c0.83,1.41,1.61,2.85,2.8,4c1.41,1.36,2.13,3.09,3.03,5.18c-7.52-1.12-11.49,4.17-16.04,8.3
		c-1.38-0.35-2.02-1.35-2.58-2.38c-0.84-1.51-1.9-2.87-2.88-4.29c-1.12-1.61-2.5-2.87-4.3-3.64c-1.8-0.76-3.29-1.84-4.37-3.52
		c-1.01-1.57-2.58-2.52-4.25-3.3c-1.81-0.84-3.56-1.8-4.82-3.33c0.02-0.27-0.03-0.52,0.06-0.61c4.46-4.33,4.58-9.62,3.33-15.18
		c-0.73-3.22-2.01-6.21-4.03-8.86c-0.44-0.57-0.84-1.18-1.48-1.58c-1.72-1.1-2.96-0.61-3.27,1.42c-0.42,2.7-0.87,5.37-2.01,7.8
		c-2.14,0.93-2.14,0.93-3.7,3.49c-4.34-1.05-8.8-0.95-13.13,0.68c-3.24-2.69-6.18-5.53-9.82-7.47c-1.78-0.96-3.64-1.65-5.59-2.08
		c-1.15-0.25-2.35-0.27-3.28,0.76c-0.94,1.06-0.37,2.03,0.09,3.02c1.14,2.41,1.04,4.96,0.65,7.48c-0.58,3.75,0.14,7.23,1.93,10.5
		c0.55,1,0.91,1.86,0.63,3.05c-0.48,2.09,0.19,4.14,0.58,6.33c-0.69,0.72-1.43,1.49-2.27,2.37c-5.34-5.12-10.08-2.47-14.56,1.18
		c-1.34-0.16-2.5-0.37-3.67-0.41c-4.47-0.16-7.22,1.56-8.85,5.75c-1.27,3.24-3.1,6.13-5.16,9.27c-0.73-1.23-0.72-2.44-0.77-3.49
		c-0.18-3.46-0.86-6.85-1.45-10.23c-0.51-2.97-0.06-5.76,0.46-8.62c1.25-6.73,4.63-12.57,7.84-18.47c1-1.83,2.05-3.64,2.54-5.69
		c0.19-0.8,0.36-1.74-0.64-2.11c-1.01-0.37-1.51,0.43-1.84,1.19c-1.42,3.28-3.73,5.94-6.09,9.27c-2.17-5.82-3.98-11.26-6.23-16.55
		C104.68,111.63,105.61,113.6,106.95,115.22z M189.79,169.28c-0.68,2.79,0.69,5.31,2.28,7.75c-0.91,1.25-1.68,2.58-1.43,4.21
		c0.02,0.09,0.01,0.19-0.02,0.27c-2.71,5.63-2.29,12.12-4.93,17.76c-0.65,1.4-1.25,2.82-1.93,4.21c-1.87,3.85-2.15,7.81-0.97,11.91
		c0.57,2.01,0.93,4.05,0.89,6.17c-0.03,2.59-1.74,3.92-3.65,4.99c-1.42,0.79-2.95-0.47-2.67-2.2c0.26-1.63,0.28-3.25,0.34-4.88
		c0.11-3.02-0.33-5.98-1.12-8.87c-0.82-3.02-0.71-5.91,0.62-8.75c0.69-1.48,1.34-2.98,1.99-4.48c2.28-5.22,3.05-10.61,1.68-16.2
		c-0.36-1.47-0.82-2.98-2.51-3.47c-1.32,0.66-0.07,1.73-0.63,2.55c-1.55-1.08-3.51-1.41-4.86-2.88c-0.51-0.56-1.46-0.79-1.99-0.23
		c-1.13,1.22-2.47,0.82-3.79,0.82h-5.39c1-3.36,2.71-5.89,4.42-8.43c1.47-2.18,3.05-4,5.71-5.11c3.78-1.58,6.62-4.45,7.24-8.96
		c1.26-0.45,2.28-0.81,3.45-1.23c0.44,0.89-0.36,2.31,1.27,2.81c2.2-1.34,1.44-3.67,1.84-5.76c-2.56-0.85-4.11,1.2-6.28,1.97
		c-1.23-4.32-0.23-8.14,1.58-12.19c3.29,3.03,7.63,4.43,10.73,7.64c0.77,0.79,1.61,1.49,2.64,1.89c2.9,1.12,4.51,3.5,6.01,5.92
		c-1.1,4.54-2.71,8.7-5.95,12.21c-1.08-5.79-1.15-5.92-3.69-7.42C189.52,163.9,190.43,166.68,189.79,169.28z M149.22,193.26
		c-0.8-0.81-0.85-1.28-0.77-1.71c0.76-4.17,0.31-8.32-0.13-12.47c-0.24-2.36-1.18-4.3-3.13-5.79c-1.28-0.99-2.41-2.2-3.49-3.42
		c-1.13-1.28-1.41-2.7-0.11-4.24c1.31,0.36,1.83,1.27,2.5,1.99c1.37,1.48,2.84,2.76,4.72,3.6c1.9,0.84,3.31,2.33,4.08,4.21
		c1.46,3.56,4.07,5.27,7.78,5.91c3.07,0.53,6.14,0.46,9.22,0.53c1.39,0.04,6.06,1.6,7.02,2.34c0.68,0.52,1.32,1.09,1.15,2.01
		c-0.47,2.38-0.63,4.84-1.64,7.27C167.14,194.27,157.97,192.57,149.22,193.26z M175.02,197.09c-0.15,1.44-0.58,2.49-1.47,3.71
		c-8.59-1.97-17.25-0.84-26.21,0.54c0.11-1.73,0.38-2.84,0.74-3.87C157.1,195.41,166,197.27,175.02,197.09z M111.23,203.61
		c-0.12-0.24-0.26-0.5-0.45-0.67c-3.63-3.27-2.63-7.23-1.48-11.07c0.7-2.32,1.76-4.55,2.24-7.06c4.9-0.97,9.29-3.15,13.79-5.06
		c2.34-0.99,4.18-2.48,5.4-4.75c0.72-1.35,1.57-2.64,3.24-3.98c-0.81,2.52-1.2,4.58-0.15,6.62c0.37,0.71-0.06,1.41-0.35,2.08
		c-0.78,1.78-0.72,3.54,0.23,5.23c0.57,1,0.41,2.02,0.47,3.09c0.14,2.38-0.33,4.62-0.68,6.92c-0.41,2.68,0.21,5.24,1.79,7.51
		c0.41,0.58,0.95,1.11,1.06,1.97c-7.73,4.42-15.71,8.42-23.71,12.27c-1.24-1.01-1.7-2.19-2.29-3.22c0.32-1.05,1.01-1.58,1.88-2.02
		c1.5,0.52,3.02,1.77,4.86-0.1C114.01,209.51,112.73,206.49,111.23,203.61z M106.74,219.25c-0.34-1.47-1.72-1.1-2.73-0.93
		c-2.5,0.44-4.97,1.05-7.46,1.51c-6.95,1.29-13.88,2.72-20.94,3.34c-0.71,0.06-1.48,0.09-1.82,1.36c3.13,1.7,6.63,0.5,9.69,1.02
		c-21.99,4.36-43.25,1.75-63.51-8.15c-0.21-1.71-0.25-1.72,0.39-3.26c2.89,3.46,6.61,5.32,11.29,6.55
		c-0.45-2.88-2.59-3.16-3.83-4.31c-1.25-1.17-2.78-2.03-3.82-3.45c0-1.08,0.07-2.16-0.01-3.24c-0.15-2.08,0.16-3.79,2.07-5.2
		c1.76-1.3,1.92-3.61,2.34-5.65c0.16-0.79-0.06-1.64,0.35-2.45c0.82-0.8,1.92-0.83,3-0.93c2.26-0.2,4.52-0.39,6.77-0.63
		c1.18-0.12,2.33-0.44,3.37-1c2.44-1.28,2.72-3.44,0.68-5.26c-1.49-1.33-3.34-1.8-5.27-1.92c-1-0.07-2,0.02-2.99-0.01
		c-0.9-0.02-1.74,0.57-3.07,0.15c2.19-4.56,4.63-8.9,7.08-13.23c1.08,0.25,1.55,1.09,2.17,1.7c2.06,2.05,4.2,4.01,6.49,5.8
		c3.26,2.55,6.81,4.49,10.87,5.41c5.4,1.21,10.79,2.42,16.18,3.65c9.3,2.12,18.52,2.07,27.65-0.88c0.76-0.24,1.51-0.65,2.51-0.38
		c0.55,1.66,0.88,3.42,0.96,5.21c0.08,2.08-0.17,4.16,0.35,6.23c0.12,0.48-0.1,1.06-0.24,1.58c-1.31,5.09-0.5,9.89,1.94,14.48
		c0.59,1.12,1.13,2.28,1.71,3.4c0.61,1.19,0.68,2.45,0.52,3.72c-0.16,1.28-0.9,2.01-2.23,1.77c-5.04-0.92-10.13-0.4-15.24-0.69
		c2.8-0.59,5.61-1.13,8.4-1.78c1.5-0.34,2.97-0.81,4.42-1.33C105.8,221.09,107.06,220.64,106.74,219.25z M24.82,154.04
		c2.38,2.85,3.56,6.34,6.2,9.14c-1.14,2.09-2.18,3.98-3.19,5.89c-0.77,1.45-1.96,1.37-3.63,0.84
		C23.91,164.68,24.97,159.4,24.82,154.04z M29,172.9c-0.12-0.77,0.32-1.39,0.7-2.01c1.43-2.31,2.83-4.63,4.43-7.26
		c0.55,0.78,0.88,1.46,1.4,1.93c2.24,2.04,1.93,4.09,0.41,6.45c-2.09,3.28-3.94,6.72-5.91,10.08c-0.3,0.52-0.48,1.2-1.23,1.32
		C28.6,179.89,29.55,176.41,29,172.9z M128.89,170.45c-3.67,4-8.1,6.67-13.17,8.38c-7.05,2.38-14,5.08-21.5,5.82
		c-5.59,0.56-11.14,1.02-16.8,0.55c-6.29-0.52-12.39-1.62-18.41-3.41c-2.14-0.63-3.94-1.61-5.71-2.98
		c-7.01-5.47-13.03-11.84-17.65-19.45c-2.72-4.48-5.31-9.07-7.11-14.09c1.89-2.87,4.57-4.77,7.5-6.19
		c4.63-2.25,9.47-3.69,14.71-2.09c1,0.31,1.86,0.65,2.37,1.62c3.28,6.15,6.96,12.09,9.93,18.4c-0.7,1.12-2.93,0.31-2.6,2.34
		c0.6,0.93,1.58,0.73,2.45,0.71c5.89-0.19,11.51,1.16,17.09,2.88c6.58,2.04,13.1,4.34,19.92,5.55c2.77,0.5,5.5,1.06,8.34,0.26
		c1.27-0.36,2.35-0.84,3.32-1.73c3.06-2.82,5.19-6.25,6.89-10.02c1.19-2.64,1.85-2.93,4.61-2.73c0.25,0.9-1.07,1.84,0.37,2.98
		c3.5-2.19,6.54-5.66,11.11-6.24c-2.63,1.96-5,4.18-7.09,6.68c-0.23,0.28-0.33,0.65-0.11,1.07c0.81,0.77,1.46,0.07,2.11-0.35
		c2.61-1.67,5.34-3.1,8.22-4.21c1.13-0.44,2.31-0.98,4.15-0.15c-4.34,1.37-7.47,3.74-10.21,6.64c-0.43,0.45-0.74,1.04-0.54,1.81
		c0.91,1.32,2.03,0.64,3.08,0.16c2.48-1.13,4.69-2.79,7.31-3.64c0.6-0.19,1.19-0.48,1.8-0.57c2.81-0.43,3.8,0.26,4.43,3.06
		c0.32,1.41,0.61,2.83,0.9,4.24c0.01,0.07-0.1,0.15-0.16,0.25c-1.02,0.1-1.31-0.81-1.83-1.37c-0.95-1.01-1.97-1.99-3.29-2.35
		c-2.45-0.66-3.5-1.49-5.12,1.25c-0.33,0.57-0.9,0.88-1.5,1.12C133.59,165.89,131.09,168.06,128.89,170.45z M61.38,142.08
		c1.99-5.25,2.79-10.69,2.51-16.29c-0.02-0.35,0.06-0.71,0.13-1.5c3.75,1.51,7.9,1.23,11,4.17c0.58,0.54,0.93,1.13,1.08,1.82
		c0.61,2.89,2.24,5.08,4.43,6.97c1.17,1.01,2.17,2.19,3.27,3.29c0.69,0.69,1.48,1.02,2.45,0.53c0.86-0.43,1.04-1.19,1.05-2.05
		c0.03-2.03-0.74-3.91-1.13-5.86c-0.17-0.88-0.63-1.72-0.35-2.86c0.74-0.66,1.6-1.43,2.51-2.23c1.99,0.48,3.96,0.29,6.07-0.08
		c1.3,2.03,1.88,4.33,2.68,6.52c0.7,1.9,1.46,3.7,3.1,5.01c0.5,0.4,0.85,0.9,1.03,1.56c1.43,4.94,2.39,10,3.42,15.04
		c0.82,4.06,0.76,4.65-0.37,8.83c-0.64,0.58-1.35,0.23-2.04,0.12c-7.72-1.25-15.29-3.11-22.74-5.47c-3.82-1.22-7.72-1.92-11.88-2.04
		c-1.51-4.66-3.46-8.74-5.81-12.63C61.25,144.03,60.99,143.12,61.38,142.08z M58.72,103.18c0.8-0.2,1.26,0.17,1.63,0.5
		c2.32,2.09,5.01,3.56,7.82,4.85c0.76,0.35,1.44,0.8,1.73,1.63c0.78,2.29,1.53,4.58,2.38,7.13c-3.66-0.07-6.45-2.22-9.78-2.76
		C61.57,110.39,60.21,106.77,58.72,103.18z M143.38,119.71c4.22,1.6,7.65,3.52,10.73,6.1c0.62,0.53,1.25,1.04,1.87,1.57
		c1.05,0.89,2.17,1.14,3.54,0.68c2.08-0.7,4.26-0.73,6.44-0.82c3.71-0.16,7,0.69,9.79,3.25c0.68,0.63,1.45,1.46,2.75,0.8
		c0.5-2.49-1.91-3.13-3.13-4.59c2.39-3.07,3.96-6.48,4.76-10.91c2.1,3.36,2.99,6.5,3.47,9.79c0.61,4.2-0.76,7.71-3.84,10.52
		c-0.94,0.86-1.43,1.8-1.69,2.99c-0.22,0.96-0.55,1.92-0.94,2.83c-1.49,3.52-2.06,7.11-1.31,10.91c0.19,0.95,0.03,1.98,0.03,2.97
		c-1.06-1.39-2.14-2.46-4.07-1.26c-0.43,0.27-0.85-0.07-1.26-0.24c-1.64-0.67-3.22-0.74-4.46,0.75c-1.22,1.45-0.91,3.05-0.19,4.61
		c0.24,0.53,0.6,1.02,1.13,1.88c-3.06-1.29-5.67-2.51-7.78-4.55c-2.1-2.01-4.01-4.22-6.17-6.14c-2.1-1.86-3.93-3.87-4.77-6.94
		c-1.64,1.46-0.99,2.77-1.33,3.96c-0.95-2.08-0.95-4.12-0.84-5.84c0.48-1.35,1.91-0.79,2.27-1.84c0.02-0.97-0.81-1.33-1.43-1.8
		c-2.15-1.66-3.18-3.92-3.5-6.53c-0.14-1.16-0.1-2.35-0.12-3.53C143.29,125.56,144.15,122.84,143.38,119.71z M160.78,162.3
		c-5.07-2.1-9.89-4.48-12.27-10.03c1.13-0.58,2.06-0.47,2.94,0.36c0.92,0.87,2.03,1.58,2.77,2.57
		C156.18,157.78,158.28,160.2,160.78,162.3z M136.66,194.7c0.09-0.26,0.14-0.53,0.26-0.77c3.17-6.66,3.23-13.66,2.23-20.77
		c-0.04-0.34,0-0.7,0-1.56c2.12,1.99,3.82,3.6,5.56,5.18c0.51,0.47,0.72,1.01,0.78,1.67c0.39,3.96,0.7,7.9,0.15,11.91
		c-0.39,2.86-0.41,5.77-1.16,8.6c-0.42,1.58-0.94,3-2.75,3.33c-1.75,0.31-2.92-0.77-3.91-1.99
		C136.49,198.65,135.97,196.79,136.66,194.7z M91.95,100.89c0.62,0.22,0.92,0.85,1.25,1.4c4.41,7.32,8.42,14.82,10.59,23.17
		c0.3,1.14,0.56,2.34,1.14,3.34c1.67,2.85,0.8,5.34-0.81,7.89c-2.18-0.12-2.82-1.79-3.43-3.38c-1.43-3.72-2.68-7.51-4.18-11.21
		c-2.12-5.2-4.28-10.39-7.17-15.24c-1.91-3.19-3.97-6.26-6.96-8.75C85.71,98.62,88.83,99.79,91.95,100.89z M79.86,110.51
		c1.75-0.89,2.7-2.51,3.59-4.58c3.48,4.15,5.09,8.84,7.29,13.42c-2.14,0.54-4.03,1.33-5.74-0.46c-3.44-0.19-3.91-2.9-4.59-5.42
		C80.18,112.6,79.64,111.81,79.86,110.51z M83.77,121.75c0.04,1.24,0.72,2.28,0.35,3.65c-2.53,0.02-4.92-0.53-7.48-1.17
		c-0.22-1.02-0.43-2.02-0.69-3.29C78.74,121.23,81.19,121.48,83.77,121.75z M90.13,60.73c-0.05,1.31-0.82,1.89-1.33,2.62
		c-1.28,1.82-2.19,3.84-2.18,6.06c0.01,2.1-0.33,4.14-0.47,6.21c-0.12,1.8-0.84,3.15-2.19,4.17c-2.39,1.77-4.4,4.06-7.26,5.2
		c-1.1,0.45-1.45,1.62-1.5,2.73c-0.16,4.5,0.85,8.83,2.07,13.11c0.1,0.35,0.29,0.68,0.58,0.91c1.56,1.24,1.37,2.77,0.84,4.49
		c-1.93,0.59-3.79,0.44-5.63-0.13c-4.45-1.39-8.48-3.6-12.42-6.09c-3.3-2.09-5.83-4.8-8.22-7.94c1.66-4.09,1.54-8.41,1.96-12.62
		c0.23-2.38,1.22-4.3,2.23-6.54c2.44,1.27,4.52,2.94,7.08,1.25c2.87-1.9,2.59-4.73,2.07-7.77c2.81-1.6,3.71-4.37,4.26-7.39
		c0.26-1.42,0.71-2.81,1.2-4.18c0.63-1.77,2.09-2.54,3.86-1.84c1.68,0.66,5.45,1.58,8.35,2c1.02,0.15,1.99,0.6,2.71,1.34
		C87.61,57.83,88.55,59.69,90.13,60.73z M57.72,61.95c0.2-0.89,0.58-1.7,1.72-2.01c0.98,0.71,0.97,1.7,1.35,2.5
		c0.48,0.98,0.93,1.92,1.76,2.69c1.35,1.25,1.6,3.89,0.66,5.41c-0.57,0.9-1.32,1.23-2.29,0.75c-0.48-0.24-0.99-0.54-1.3-0.95
		C57.71,67.85,57.05,65.04,57.72,61.95z M93.84,46.03c3.03,0.81,6.26,0.85,9.4,1.29c1.04,0.14,2.06,0.47,3.09,0.72
		c-0.01,0.28-0.02,0.57-0.04,0.85c-8.75,3.42-17.82,3.68-27.66,2.39c2.79-1.41,5.18-2.44,7.38-3.78
		C88.49,46,90.82,45.21,93.84,46.03z M44.09,41.05c4.47-5.24,10.12-8.35,16.88-9.69c5.7-1.13,11.16-1.07,16.32,1.91
		c3.87,2.23,7.27,5.01,9.83,8.51c-0.22,1.35-1.19,1.58-1.97,2C81.24,45.9,77.2,47.73,73,49.23c-9.65,3.45-19.48,6.34-29.31,9.23
		c-0.75,0.21-1.55,0.7-2.28-0.12c-0.04-0.86,0.71-1.2,1.2-1.66c2.89-2.71,3.58-7.04-1.9-9.34C41.25,44.8,42.56,42.85,44.09,41.05z
		 M45.83,95.62c1.37-0.92,2.8,0.08,3.9,1.07c2.04,1.84,3.47,4.16,4.87,6.5c6.74,11.27,7.38,23.22,4,35.81
		c-1.27-0.38-1.39-1.07-1.05-1.79c2.35-4.99,0.16-8.51-4.91-10.95c0.3-7.7-3.31-13.81-8.29-19.37c-1.74-1.95-3.48-3.91-5.43-5.89
		C41.1,98.85,43.47,97.2,45.83,95.62z M22.19,136.5c1.42-3.09,0.83-6.05,0.58-9.05c-0.54-6.49,0.58-12.64,3.4-18.44
		c2.02-4.16,5.47-6.39,10.24-6.64c1.55,1.23,2.54,3,3.75,4.55c2.34,3.01,4.37,6.22,6.35,9.48c1.63,2.68,2.44,5.65,2.91,8.71
		c0.27,1.75,0.97,3.01,2.49,3.94c1.59,0.97,2.7,2.41,3.34,4.17c0.22,0.6,0.32,1.2-0.07,1.91c-3.75-3.19-8.05-3.46-12.56-2.74
		c-2.69,0.43-5.36,0.86-7.95,1.73c-2.8,0.94-5.25,2.45-7.44,4.38c-1.42,1.25-2.72,2.62-2.89,5.05
		C22.18,141.23,21.16,138.73,22.19,136.5z M20.64,154.8v9.09c0,1.9-0.14,3.82,0.05,5.7c0.24,2.41-0.81,3.94-3.25,5.34
		C17.81,167.83,18.94,161.29,20.64,154.8z M17.78,210.89c-2.11-1.27-3.15-3.03-3.54-5.33c-0.84-4.91-1.53-9.85-1.66-14.84
		c-0.06-2.15-0.93-4.28-0.16-6.78c2.59-0.82,4.38-2.98,6.22-5.11c1.6-1.84,3.56-3.27,5.58-4.64c0.95,0.79,0.89,1.46,0.86,2.07
		c-0.27,6.36,0.45,12.68,0.55,19.03c0.05,3.65-1.13,6.31-4.6,7.84c-1.15,0.5-2.18,1.3-3.19,2.06c-0.79,0.59-1.73,1.32-1.35,2.45
		c0.45,1.32,1.6,0.82,2.56,0.64c0.27-0.05,0.54-0.07,0.92,0.34C20.37,210.34,18.53,210.11,17.78,210.89z M46.82,388.48
		c0.02,1.8,0,3.6,0,5.66c-4.1-1.06-7.99-0.16-11.78,1.88c-1.18-1.8-1.53-3.69-2.22-5.42c-2.45-6.15-5.26-12.17-6.73-18.66
		c-0.93-4.08-1.64-8.2-1.52-12.39c0.06-2.02-0.54-3.95-0.46-5.96c0.21-6.1,1.1-12.09,2.88-17.93c1.08-3.56,2.38-7.05,3.52-10.59
		c1.16-3.61,2.71-7.12,3.1-11.5c8.12,1.8,15.92,1.83,23.87-0.78c-0.4,3.83-0.77,7.39-1.16,10.94c-0.12,1.11-0.61,2.04-1.34,2.92
		c-0.93,1.11-1.85,2.26-2.55,3.52c-0.94,1.71-2.07,3.45-1,5.6c0.2,0.41-0.03,1.06-0.12,1.59c-1.42,8.03-2.42,16.11-2.93,24.27
		C47.81,370.58,46.74,379.49,46.82,388.48z M63.37,397.52c-1.01,0.74-2.35,1.1-3.49,1.84c-2.17,1.43-3.05,3.24-2.4,5.79
		c0.4,1.58,0.68,3.19,1.07,4.78c0.25,1.03,0.3,1.97-1,2.76c-2.38-2.17-4.88-4.27-4.62-8c0.18-2.58-0.85-4.79-1.87-7.01
		c-0.42-0.92-0.77-1.81-0.81-2.84c-0.23-5.73,0.26-11.42,0.64-17.12c0.32-4.87,1.04-9.72,1.42-14.59
		c0.56-6.96,1.62-13.85,2.55-20.76c0.24-1.8,0.63-3.58,0.74-5.38c0.17-2.79,0.95-5.28,2.44-7.67c2.09-3.35,2.03-7.28,2.5-11.04
		c0.16-1.33-0.04-2.72,0.81-4.15c0.85,2.98,1.82,5.7,3.01,8.34c0.51,1.14,0.42,2.3,0.33,3.48c-0.27,3.64-1.14,7.14-2.31,10.59
		c-1.72,5.07-3.47,10.12-4.26,15.45c-0.52,3.53-0.42,7.05-0.11,10.57c0.96,11.14,3.83,21.96,5.39,32.99
		C63.49,396.18,63.74,396.78,63.37,397.52z M88.69,332.35c-0.63,1.4-1.21,2.86,0.26,4.25c0.58,0.54,0.15,1.37,0.03,2.08
		c-2.18,12.59-3.41,25.31-5.12,37.96c-1.02,7.54-1.93,15.1-3.36,22.58c-0.07,0.34-0.26,0.66-0.46,1.17
		c-2.39-0.1-4.55-0.37-6.72,0.06c-2.16,0.44-3.42,2.21-4.85,3.42c-0.81-0.36-0.84-0.85-0.82-1.28c0.36-9.81-2.1-19.24-3.91-28.75
		c-0.83-4.37-1.46-8.77-1.47-13.21c0-6.28,0.97-12.45,2.84-18.46c1.32-4.25,2.5-8.53,2.65-12.98c0.64-0.79,1.42,0.29,2.38-0.55
		c0.73-0.87,0.03-2.02-0.42-3.18c-1.52-3.98-3.02-7.97-4.53-11.96c-0.13-0.35-0.14-0.7,0.29-1.38c8.27,1.64,16.73,3.44,25.53,2.77
		C91.08,320.93,91.17,326.8,88.69,332.35z M104.89,268.46c-1.66,10.01-3.41,20.02-4.99,30.05c-0.51,3.2-0.95,6.44-0.76,10.32
		c-4.41-2.54-8.53-4.44-13.08-5.33c-7.88-1.54-11.55-1.8-13.43-0.49c0.48,1.24,1.71,1.27,2.69,1.5c3.36,0.77,6.73,1.5,10.13,2.08
		c2.98,0.5,5.84,1.29,8.56,2.6c1.39,0.66,2.8,1.23,4.36,1.2c0.39,0.76,0.32,1.44-0.07,2.23c-6.3-3.48-13.4-3.66-20.23-4.95
		c-3.28-0.62-6.43-1.96-9.88-1.78c3.51-11.42,4.09-23.17,6.58-34.56c0.54-2.47,0.8-5.01,2.09-7.25c0.08-1.56,0.33-3.06,1.54-4.47
		c1.6,1.05,2.91,0.45,4.22-0.73c1.46-1.32,3.2-2.36,4.03-4.4c-1.97-1.85-3.02,0.44-4.62,0.96c0.08-1.47,1.67-2.83,0.24-4.37
		c-2.33,0.38-2.91,2.56-4.11,4c-1.22,1.47-2.52,2.83-3.99,4.22c-1.21-1.31,0.75-3.15-0.89-4.29c-1.26,0.44-1.34,1.62-1.62,2.6
		c-1.08,3.76-1.43,7.66-1.94,11.52c-1.15,8.71-1.27,17.53-2.73,26.21c-0.09,0.54-0.17,1.08-0.31,1.6c-0.92,3.42-2.93,6.41-3.69,9.87
		c-8.65,1.37-17.11,1.88-25.61,0.52c-1.97-0.31-3.95-0.57-5.94-0.74c-1.02-0.09-2.22-0.38-2.8,0.9c-0.1,1.12,1.03,1.24,1.45,1.99
		c0.03,0.82,0.02,1.71-0.45,2.7c-3.08-2.58-3.67-5.87-3.32-9.56c0.92-9.69,0.66-19.38-0.68-29.02c-0.35-2.5-1.14-4.94-1.75-7.41
		c-0.22-0.88-0.7-1.95-0.2-2.64c1.38-1.91,0.31-3.42-0.44-5.04c-0.12-0.24-0.17-0.51-0.25-0.77c-0.18-0.9-0.45-1.75-1.17-2.38
		c-1.51-1.35-2.08-2.86-2.01-5.02c0.09-2.68-0.66-5.37-0.96-8.07c-0.71-6.5,0.25-12.81,2.01-19.29c2.72,1.29,5.17,2.6,7.89,3.26
		c11.91,2.86,23.83,5.7,35.99,7.21c4.68,0.58,9.4,0.04,14.1-0.58c7.81-1.03,15.53-2.91,23.48-2.57c0.98,0.04,2.01-0.21,3.1,0.49
		c0.22,1.84,0.54,3.79,0.69,5.75c0.54,6.61,1.14,13.23,0.63,19.84C106.44,260.43,105.56,264.44,104.89,268.46z M133.73,366.26
		c-0.86-2.99-1.73-5.97-2.58-8.9c0.7-0.74,1.79,0.42,2.4-1.14c-2.24-2.98-4.79-6.13-6.07-10.03c-1.27-3.86-2.72-7.66-4.19-11.79
		c4.14-2.05,8.15-3.63,12.81-5.08c-0.36,5.13-2.09,9.72-1.4,14.49c0.67,4.65,1.28,9.31,1.95,14.17
		C133.02,359.8,133.3,362.96,133.73,366.26z M154.81,407.14c-7.91-5.63-11.74-4.53-15.8,4.12c-1.55-0.09-2.07-1.01-2.15-2.46
		c-0.16-3.02,0.1-6.04,0.74-8.93c1.61-7.29,2.51-14.63,2.56-22.09c0-0.36,0.05-0.72,0.45-1.07c0.9,0.07,1.01,0.75,0.94,1.5
		c-0.43,4.78-0.93,9.55-1.29,14.34c-0.2,2.71-0.18,5.43-0.24,8.15c-0.01,0.63,0.02,1.3,0.86,1.63c1.19-0.23,1.26-1.3,1.48-2.23
		c1.18-4.95,1.71-9.99,2.14-15.05c0.18-2.06,0.44-4.11,0.66-6.19c1.53-0.27,2.65,0.23,3.9,0.79c-0.2,3.22-1.29,6.23-1.72,9.35
		c-0.38,2.79-0.97,5.54-0.82,8.38c0.06,0.96-0.16,2.04,1,2.62c1.43-0.09,1.32-1.3,1.52-2.2c1.06-4.87,1.84-9.79,2.57-14.72
		c0.14-0.98,0.25-1.97,0.73-2.88c0.93-0.36,1.75-0.01,2.77,0.21c-0.76,3.42-1.53,6.66-2.19,9.93c-0.5,2.48-0.94,4.99-1.28,7.5
		c-0.21,1.61-0.1,3.24,1.3,4.49c1.93-0.46,1.49-2.3,2.3-3.68C155.23,401.51,154.49,404.07,154.81,407.14z M164.01,394
		c0,1.96,0.01,3.91,0,5.86c-0.01,0.85-0.25,1.62-0.98,2.13c-1.38,0.97-2.71,2.04-4.56,2.42c-0.79-2.3,0.25-4.32,0.36-6.41
		C160.64,396.75,162.85,396.1,164.01,394z M166.47,368.07c-1.75,5.53-3.71,8.12-9.98,8.71c-6.92,0.65-12.81-1.78-18.17-5.87
		c-0.57-0.44-1.35-0.93-1.19-1.7c0.5-2.46-0.66-4.86-0.07-7.41c1.86,6.11,7.31,7,12.25,8.42c1.85,0.53,3.9,0.73,5.92,0.67
		c4.59-0.15,8.18-2.06,10.76-5.91C166.62,365.96,166.82,366.99,166.47,368.07z M168.62,288.57c-2.54,7.34-2,14.83-1.16,22.34
		c0.63,5.67,1.29,11.32,0.51,17.06c-0.43,3.21-0.29,6.5-0.5,9.76c-0.36,5.29-1.77,10.36-2.65,15.53c-0.58,3.39-1.56,6.71-1.93,10.14
		c-0.1,0.92-0.54,1.49-1.26,1.96c-1.48,0.94-3.05,1.68-4.83,1.62c-4.27-0.15-8.53-0.39-12.35-2.68c-0.92-0.55-1.99-0.86-2.93-1.72
		c-0.81-6.6-1.64-13.06-2.39-19.53c-0.4-3.46,0.26-6.87,0.58-10.3c0.64-6.96,1.82-13.82,3.5-20.61c0.4-1.6,0.29-3.25,0.16-4.87
		c-0.08-0.92-0.29-1.95-1.28-2.22c-1.45-0.4-1.66-1.49-1.92-2.66c-1.4-6.26-1.34-12.6-1.07-18.95c0.08-1.64,0.74-3.17,1.16-4.75
		c0.63-2.4,2.26-3.76,4.6-4.03c5.95-0.68,11.78-0.39,17.07,2.94c2.11,1.32,3.8,3.06,5.44,4.89
		C168.98,284.28,169.39,286.35,168.62,288.57z M192.01,236.22c-0.14,1.08-0.34,2.21-0.17,3.26c0.62,3.67-1.29,6.87-1.82,10.32
		c-0.06,0.4-0.4,0.82-0.72,1.12c-1.51,1.43-2.73,2.93-2.02,5.24c0.16,0.53-0.31,1.02-0.64,1.45c-5.79,7.63-8.65,16.48-10.68,25.68
		c-0.46,2.1-1.08,4.17-1.81,6.25c-0.32-6.3-3.78-10.66-8.35-14.43c-2.52-2.09-4.99-4.18-8.13-5.34c-5.5-2.02-10.67-1.37-15.62,1.64
		c-0.31,0.18-0.61,0.41-1.01,0.3c-0.1-0.14-0.29-0.3-0.27-0.41c1.29-5.22,1.11-10.62,2.03-15.89c0.34-1.97,1.03-3.59,2.51-4.96
		c1.19-1.11,2.32-2.3,3.26-3.65c1.21-1.72,3.07-2.53,4.95-3.22c1.96-0.72,3.97-1.27,5.97-1.87c0.7-0.21,1.42-0.34,2.11-0.55
		c0.86-0.28,1.92-0.51,1.78-1.69c-0.14-1.25-1.25-1.09-2.14-1.08c-0.54,0-1.09,0.08-1.61,0.2c-3.3,0.72-6.46,1.85-9.51,3.28
		c-2.07,0.97-3.89,2.33-5.21,4.26c-0.36,0.52-0.7,1.07-1.8,1.43c-4.48-8.59-5.43-18.07-7.36-27.66c-1.72,1.69-1.26,3.31-1.08,4.72
		c0.48,3.87,1.21,7.7,1.8,11.55c0.55,3.59,1.79,7,3,10.91c-2.75-0.38-5.14-0.39-7.52-0.89c-4.19-0.89-8.16-2.47-12.17-3.91
		c-1.05-0.37-2.15-1.02-3.32-0.19c2.24,3.68,12.65,7.4,24.33,8.67c-5.49,0.75-10.68,0.89-15.38,3.25c-0.48,0.24-0.9,0.63-0.74,1.69
		c4.61,0.44,9.18-1.26,14.49-1.13c-1.8,1.17-3.58,0.71-4.76,1.99c0.72,1.58,2.29,0.7,3.61,1.38c-0.81,4.58-0.36,9.39-1.47,14.07
		c-0.74,3.12-1.04,6.26-0.89,9.45c0.17,3.64-0.32,7.22-0.62,11.02c-1.35-0.45-2.19-1.41-3.19-2.11c-4.02-2.85-8.16-5.44-13.08-6.47
		c-1.27-0.27-2.53-0.55-3.13,0.96c0.17,1.08,0.99,1.13,1.65,1.35c6.3,2.09,11.76,5.62,16.89,9.72c0.73,0.58,1.44,1.11,1.57,2.11
		c0.66,5.33,2.61,10.36,3.57,15.62c0.07,0.34,0.01,0.71,0.01,1c-0.79,0.9-1.83,0.93-2.79,1.16c-4.25,1.05-8.34,2.53-12.2,4.58
		c-1.43,0.76-4.03,1.42-3.01,3.38c1.04,1.99,3.05,0.06,4.47-0.56c3.34-1.45,6.68-2.87,10.12-4.02c0.83-0.27,1.66-0.75,2.54-0.37
		c0.5,0.82-0.02,1.5-0.07,2.2c-0.18,2.72-1.28,4.14-4.3,4.86c-5.4,1.29-10.43,3.72-14.36,8.31c-1.24-1.3-1.96-2.71-2.71-4.12
		c-0.98-1.85,0.95-2.75,1.19-4.04c-0.1-1.27-1.19-1.41-1.92-1.98c-0.75-9.4-3.99-18.22-6.27-27.26c-1.29-5.11-2.27-10.27-2.99-15.48
		c-0.23-1.62-0.25-3.26,0.02-4.89c0.87-5.46,1.68-10.93,2.61-16.38c0.81-4.79,0.66-9.63,0.33-14.4c-0.33-4.8-0.18-9.61-0.55-14.43
		c2.01-2.04,2.75-4.67,3.37-7.32c0.74-3.16,0.7-3.17,4.02-3.11c0.62-1.45,1.84-2.27,3.46-2.6c1.14,0.7,0.06,2.66,1.92,3.14
		c1.11-1.3,2.79-1.39,4.49-1.61c2.06-0.28,4.11-0.74,6.13-1.23c2.03-0.49,4.03-1.19,5.99,0.42c1.36-1.88,0.67-3.8,0.67-5.61
		c0.01-0.72-0.27-1.43-0.33-2.15c-0.12-1.41,0.66-1.93,2.13-1.91c0.48,2.06,0.95,4.06,1.42,6.06c0.21,0.92,0.49,1.8,1.62,1.9
		c1,0.1,1.49-0.55,1.76-1.38c0.3-0.9,1.04-1.19,1.82-1.47c3.7-1.35,7.57-1.88,11.42-2.48c0.97-0.15,1.75,0.12,2.36,0.98
		c0.55,0.79,1.36,1.29,2.35,0.96c1.21-0.4,1.11-1.52,1.15-2.51c0.09-2.06-0.19-4.11-0.42-5.95c0.79-0.74,1.39-0.65,1.98-0.44
		c0.79,0.76,0.5,1.73,0.63,2.6c0.14,0.99,0.23,1.99,0.46,2.96c0.29,1.19,0.17,2.74,1.54,3.29c1.56,0.63,1.54-1.49,2.57-1.84
		c1.16,0.14,1.26,1,1.28,1.82c0.09,3.54,0.35,7.08-0.21,10.6c-0.59,3.75,1.52,6.15,5.34,5.99c2.52-0.1,4.64-1.39,6.99-2.57
		c1.49,2.65,3.91,4.14,6.53,5.14C192.53,234.1,192.15,235.15,192.01,236.22z M191.1,227.54c-1.16-0.71-2.33-1.47-2.29-3.04
		c0.28-0.84,1.07-0.99,1.64-1.4c2.73-1.97,3.64-4.61,2.68-7.87c-0.75-2.52-2.31-4.48-4.33-6.1c-2.83-2.28-2.84-2.51-1.37-5.93
		c1.1-2.57,2.1-5.2,3.23-8.02c1.16-0.36,2.2-1.01,3.47-0.51c0.5,1.38,0.93,2.72-0.11,4.08c-0.26,0.34-0.39,0.84-0.4,1.28
		c-0.15,4.91,0.48,9.69,2.23,14.32c0.93,2.46,1.56,5.01,1.46,7.69c-0.05,1.39-0.35,2.7-0.94,3.93
		C195.16,228.49,193.47,229,191.1,227.54z M216.21,199.08c-0.43,3.06-0.95,6.23-2.16,9.33c-1.81-0.05-2.68,0.96-3.34,2.5
		c-1.84,4.24-4.72,7.94-6.41,12.29c-1.5,3.84-2.25,7.81-2.74,11.87c-0.51,4.22-0.65,8.49-1.66,12.64c-0.26,1.06-0.62,2.09-1.22,3.02
		c-0.8,1.25-1.96,1.55-3.31,1.21c-1.38-0.33-1.81-1.36-1.84-2.66c-0.04-1.33,0.37-2.46,1.15-3.54c2.77-3.86,4.45-8.07,3.86-12.93
		c-0.09-0.78,0.2-1.4,0.62-2.03c1.58-2.34,2.15-4.94,2.08-7.75c-0.07-2.7,0.07-5.34,0.74-8.05c0.95-3.8,0.18-7.73-0.44-11.6
		c-0.55-3.48-1.08-6.99-0.77-10.92c4.54-1.72,8.98-3.41,13.57-5.16C215.32,191.41,216.77,195.2,216.21,199.08z M219.77,180.53
		c-5.76,2.7-11.71,4.91-17.66,7.15c-2.8,1.05-5.46,2.46-8.34,3.32c-0.59,0.17-1.15,0.55-2.01,0.23c0.3-2.48-0.57-5.2,1.85-7.24
		c0.56-0.48,0.52-1.33,0.48-2.06c-0.05-0.84,0.06-1.65,0.53-2.35c1.14-1.71,1.36-3.51,0.53-5.55c3.27-3.63,7.25-6.7,8.78-11.72
		c3.66-0.22,7.08-0.34,10.5,0.09c0.45,0.06,0.89,0.22,1.34,0.26c0.7,0.06,1.27-0.22,1.5-0.91c0.24-0.7-0.13-1.24-0.7-1.61
		c-1.5-0.94-3.27-1.02-5.37-1.59c2.35-1.86,4.75-1.94,7.21-1.79c1.1,0.06,1.44,0.96,1.86,1.77c2.15,4.15,3.29,8.63,4.16,13.19
		C225.42,176.89,224.59,178.26,219.77,180.53z M120.13,12.23c-0.56,2.48-1.97,4.49-3.27,6.54c-2.67,4.22-5.78,8.14-8.88,12.05
		c-0.65,0.81-1.36,1.55-2.48,1.39c-1.25-0.18-1.15-1.37-1.59-2.23c-1.08-2.08-2.53-3.96-3.66-6.02c-2.04-3.75-3.83-7.62-4.56-11.89
		c-0.32-1.89,0.08-3.44,1.67-4.55c1.6-1.12,3.13-0.5,4.56,0.42c1.39,0.89,2.47,2.11,3.44,3.45c0.52,0.72,0.82,1.62,1.86,2.25
		c1.84-2.38,3.74-4.44,6.29-5.76c1.67-0.87,3.4-1.42,5.06,0.03C119.88,9.06,120.56,10.35,120.13,12.23z M21.83,255.35
		c0.27-0.46,0.39-1.03,0.93-1.3c0.59-0.22,1.11,0.01,1.51,0.37c4.89,4.36,10.82,7.21,16.08,11.01c1.02,0.74,2.12,1.39,2.99,2.33
		c0.57,0.61,1.16,1.26,0.56,2.13c-0.52,0.74-1.3,0.5-1.98,0.26c-2.49-0.87-4.74-2.22-6.96-3.61c-4.2-2.64-8.42-5.25-11.93-8.82
		C22.83,256.83,22.55,255.98,21.83,255.35z M76.86,264.08c5.92-4.07,12.45-6.93,19.11-9.53c0.98-0.38,1.93-0.48,2.46,0.62
		c-0.03,1.04-0.76,1.3-1.39,1.62c-4,2.09-8.02,4.15-12.02,6.25c-1.68,0.88-3.35,1.79-4.97,2.76c-2.44,1.46-3.01,1.17-3.17-1.74
		L76.86,264.08z M173.53,232.76c-4.5,1.15-8.86,1.15-12.95,2.66c-4.05,1.5-7.59,4.04-11.64,5.67c-0.88-1.7,0.01-2.48,0.95-3.21
		c3.84-2.97,8.09-5.15,12.72-6.6c1.9-0.6,3.82-1.24,5.83-1.24C170.29,230.04,172.27,230,173.53,232.76z M122.27,316.12
		c1.96-0.41,3.67-1.56,5.61-0.41c-1.26,1.63-7.29,4.79-10.16,5.37c-1.3-1.58,0.36-2.29,1.02-3.29c-0.46-0.43-1.33-0.08-1.57-0.91
		C118.43,314.33,120.01,314.06,122.27,316.12z M164.67,270.8c0.54-0.56,0.92-0.49,1.24-0.33c3.72,1.84,7.01,4.22,9.1,7.91
		c0.73,1.3,1.46,2.78-0.06,4.24c-2.21-0.58-1.99-2.9-3.12-4.19c-1.2-1.36-2.55-2.59-3.69-3.99
		C167.07,273.13,164.94,272.7,164.67,270.8z M157.51,103.56c0.94-1.82,2.88-2.42,4.3-3.6c1.53-1.27,2.9-2.72,4.41-4
		c1.4-1.18,1.81-3.32,3.62-3.99c0.55,0.31,0.72,0.63,0.61,1.01c-1.51,5.23-4.64,9.11-9.64,11.37
		C159.67,104.86,158.35,105.16,157.51,103.56z M128.71,94.42c0.71,0.05,1.09,0.33,1.34,0.7c1.6,2.49,3.69,4.46,6.21,6
		c0.85,0.52,1.34,1.21,0.89,2.24c-2.8,1.01-6.29-0.32-8.22-3.1C127.24,97.83,127.17,96.28,128.71,94.42z M102.36,191.89
		c-0.59,2.71-2.66,4.12-4.84,5.11c-6.5,2.96-13.14,5.61-20,7.65c-1.01,0.3-2.46,1.19-3.14-0.32c-0.67-1.5,0.92-1.97,1.84-2.53
		c4.2-2.53,8.75-4.33,13.29-6.14c3.53-1.41,7.09-2.72,10.64-4.08C100.82,191.32,101.49,190.94,102.36,191.89z M35.58,220.27
		c1.08-1.26,2.42-0.49,3.54-0.32c8.48,1.3,14.35,2.96,15.7,4.37c-0.44,1.2-1.5,1.19-2.47,1.1c-5.35-0.48-10.57-1.6-15.61-3.49
		C36.15,221.7,35.58,221.37,35.58,220.27z M150.84,319.95c1.56-1.31,2.88-2.78,4.19-4.27c0.36-0.41,0.67-0.87,1.11-1.18
		c0.63-0.44,1.37-0.53,2.03-0.03c0.58,0.44,0.6,1.11,0.41,1.74c-0.15,0.52-0.34,1.06-0.65,1.48c-1.48,1.97-3.15,3.75-5.44,4.8
		c-2.27,1.04-5.19-0.54-5.58-3c-0.08-0.49,0.02-0.92,0.41-1.21c0.39-0.29,0.88-0.33,1.27-0.06
		C149.31,318.72,150,319.3,150.84,319.95z M49.03,333.27c-1.39,0.99-2.54,0.66-3.64-0.11c-2.35-1.65-4.54-7.49-3.91-10.32
		c0.15-0.65,0.4-1.24,1.13-1.38c0.89-0.16,1.33,0.42,1.6,1.14c0.23,0.59,0.44,1.2,0.59,1.81c0.7,2.94,1.55,5.8,3.97,7.87
		C48.93,332.43,48.91,332.79,49.03,333.27z M82.2,79.01c-0.22,1.47-1.45,1.57-2.46,1.76c-4.51,0.87-8.35-0.82-11.95-3.29
		c-0.56-0.38-0.88-0.95-0.54-1.64c0.35-0.71,1-0.71,1.64-0.54c1.57,0.42,3.15,0.83,4.69,1.34c2.32,0.78,4.58,1.72,7.11,1.52
		C81.23,78.12,81.8,78.21,82.2,79.01z M24.97,134.3c-0.68-1.41,0.18-1.99,0.85-2.51c5.04-3.91,10.2-7.57,16.87-8.12
		c1.11-0.09,2.16-0.11,3.2,0.25c0.55,0.19,0.96,0.52,0.97,1.15c0.01,0.63-0.4,0.98-0.94,1.19c-0.42,0.16-0.85,0.36-1.29,0.4
		c-5.41,0.47-9.92,3.25-14.63,5.56C28.41,132.99,26.96,134.16,24.97,134.3z M14.44,184.88c1.02,0.18,1.31,0.94,1.44,1.77
		c0.74,4.84,1.56,9.67,1.85,14.56c0.05,0.77,0.11,1.53-0.87,1.68c-0.79,0.13-1.14-0.51-1.33-1.11c-0.32-1.04-0.59-2.1-0.8-3.16
		c-0.76-3.83-1.1-7.71-1.42-11.6C13.22,186.03,13.37,185.22,14.44,184.88z M120.13,12.23c-0.56,2.48-1.97,4.49-3.27,6.54
		c-2.67,4.22-5.78,8.14-8.88,12.05c-0.65,0.81-1.36,1.55-2.48,1.39c-1.25-0.18-1.15-1.37-1.59-2.23c-1.08-2.08-2.53-3.96-3.66-6.02
		c-2.04-3.75-3.83-7.62-4.56-11.89c-0.32-1.89,0.08-3.44,1.67-4.55c1.6-1.12,3.13-0.5,4.56,0.42c1.39,0.89,2.47,2.11,3.44,3.45
		c0.52,0.72,0.82,1.62,1.86,2.25c1.84-2.38,3.74-4.44,6.29-5.76c1.67-0.87,3.4-1.42,5.06,0.03
		C119.88,9.06,120.56,10.35,120.13,12.23z"/>
</g>
</svg>
