<?xml version="1.0" encoding="utf-8"?>
<!-- Generator: Adobe Illustrator 24.1.2, SVG Export Plug-In . SVG Version: 6.00 Build 0)  -->
<svg version="1.1" id="Layer_1" xmlns="http://www.w3.org/2000/svg" xmlns:xlink="http://www.w3.org/1999/xlink" x="0px" y="0px"
	 viewBox="0 0 430.47 150.63" style="enable-background:new 0 0 430.47 150.63;" xml:space="preserve">
<style type="text/css">
	.st0{fill:#00A651;}
</style>
<g>
	<path class="st0" d="M372.78,142.97c-1.14,0-2.01-0.57-2.58-0.94c-1.21-0.79-2.33-1.58-3.41-2.34c-0.54-0.38-1.09-0.77-1.64-1.15
		l-9.4-6.45c-7.57-5.19-15.14-10.39-22.7-15.61c-0.58-0.4-0.86-0.48-1.12-0.48c-0.1,0-0.22,0.01-0.35,0.04
		c-4.12,0.86-8.3,1.15-12.35,1.44c-2.23,0.16-4.53,0.32-6.76,0.58c-5.07,0.59-10.22,0.88-15.2,1.17c-1.48,0.09-2.95,0.17-4.43,0.26
		c-5.38,0.34-10.56,1.91-15.41,3.5l-0.47,0.16c-3.99,1.3-8.12,2.65-12.42,3.35c-2.02,0.33-3.98,0.94-6.06,1.59
		c-2.33,0.73-4.74,1.48-7.3,1.82c-0.06,0.06-0.4,0.42-0.5,0.52c-0.97,0.97-2.29,2.07-3.89,2.07c-1.85,0-2.95-1.39-3.59-2.59
		c-1.31,0.05-2.71,0.08-4.3,0.08c-1.62,0-3.24-0.03-4.86-0.05c-1.6-0.02-3.2-0.05-4.81-0.05l-0.54,0c-1.29,0-2.76-0.08-4.07-1.06
		c-0.38-0.28-0.78-0.4-1.33-0.4c0,0-0.37,0.01-0.45,0.01c-1.41,0-2.55-0.62-3.22-1.7c-0.98-0.01-1.95-0.02-2.92-0.03
		c-2.28-0.02-4.54-0.05-6.8-0.05c-5.07,0-8.96,0.12-12.6,0.39c-2.32,0.17-4.66,0.25-6.92,0.32c-2.11,0.07-4.28,0.13-6.4,0.28
		c-3.49,0.24-7.03,0.32-10.45,0.39c-3.1,0.07-6.3,0.14-9.43,0.33l-2.97,0.18c-5.23,0.31-10.63,0.63-15.89,1.25
		c-2.7,0.32-5.67,0.55-9.09,0.71c-2.08,0.11-3.6,0.54-4.94,1.4c-1.62,1.04-3.82,2.25-6.52,2.41c-0.15,0.01-0.38,0.05-0.78,0.32
		c-1.79,1.21-3.79,1.8-6.13,1.8c-0.73,0-1.48-0.06-2.3-0.17c-1.47-0.21-3.07-0.3-5.02-0.3c-1.36,0-2.76,0.05-4.12,0.09
		c-1.39,0.05-2.82,0.1-4.25,0.1c-0.45,0-0.89,0-1.34-0.02c0,0,0,0,0,0c-0.73,0-1.51,0.37-2.36,1.09c-1.25,1.04-2.22,1.86-3.54,1.86
		c-1.5,0-2.48-1.06-3.53-2.19c-0.04-0.04-0.08-0.09-0.12-0.13c-0.07,0.01-0.14,0.01-0.21,0.02c-1.31,0.14-2.44,0.26-3.41,0.84
		c-0.77,0.45-1.61,0.68-2.5,0.68c-0.98,0-2.02-0.28-3.09-0.83c-8.94-4.63-18.86-7.17-28.45-9.62c-1.21-0.31-2.43-0.62-3.64-0.94
		c-0.48-0.12-0.99-0.18-1.53-0.18c-0.88,0-1.83,0.17-2.81,0.49l-1.15,0.38l-0.87-0.85c-2.18-2.13-4.29-4.17-6.44-6.26l-2.46-2.39
		l0.38-1.18c0.67-2.08,2.38-3.02,3.64-3.71c0.32-0.18,0.65-0.36,0.95-0.56l0.95-0.63l1.03,0.5c2.15,1.05,2.6,1.41,4.91,4.66
		l0.6-0.51c2.14-1.8,4.28-3.61,6.43-5.4c5.93-4.93,11.67-10.29,17.23-15.48c2.91-2.72,5.92-5.53,8.93-8.25
		c0.39-0.36,0.69-0.71,0.9-1.04c4.09-6.31,9.89-10.7,15.51-14.95l1.54-1.16c2.85-2.17,5.84-4.13,8.89-5.82
		c1.29-0.72,2.21-1.61,2.9-2.79c1.23-2.1,2.56-4.14,3.86-6.12c1-1.54,2.03-3.1,3-4.7c-9.41,4.73-18.8,9.46-28.19,14.2
		c-10.11,5.1-20.23,10.2-30.35,15.28c-13.56,6.81-28.28,14.15-46.32,23.1c-0.19,0.09-0.36,0.22-0.54,0.33
		c-0.68,0.45-1.61,1.07-2.91,1.07c-0.52,0-1.05-0.1-1.56-0.31h0c-1.52-0.61-1.7-2.69-0.31-3.55l0,0c5.05-3.15,10.39-5.86,15.55-8.48
		c2.42-1.23,4.92-2.5,7.34-3.79c5.15-2.74,10.41-5.46,15.5-8.08c2.57-1.33,5.14-2.65,7.7-3.99c2.91-1.51,5.82-3.03,8.73-4.54
		c4.9-2.55,9.81-5.11,14.72-7.64c6.95-3.6,14.57-7.51,23.27-11.95c5.85-3,11.71-5.97,17.52-8.92l4.92-2.5
		c2.2-6.52,5.26-8.67,12.59-9.07c1.15-0.06,2.06-0.45,2.85-1.23c5.03-4.94,10.45-9.82,16.09-14.51c5.55-4.62,11.94-7.36,19.51-8.36
		c1.86-0.25,3.75-0.37,5.59-0.37c4.99,0,9.93,0.88,15.1,2.7c3.7,1.3,7.73,2.36,12.34,3.25c3.02,0.58,5.9,1.6,8.69,2.58l0.7,0.25
		c12.55,4.4,25.44,8.53,37.9,12.53c5.63,1.81,11.26,3.61,16.88,5.45c9.12,2.99,18.31,6.22,27.2,9.34c3.55,1.25,7.11,2.5,10.66,3.73
		c1.7,0.59,3.56,1.14,5.59,1.14c0.46,0,0.94-0.03,1.4-0.09c0.89-0.11,1.8-0.16,2.7-0.16c4.58,0,9.29,1.38,14.4,4.23
		c4.34,2.4,8.39,5.35,12.06,8.74c0.91,0.84,1.64,1.31,2.44,1.58c14.28,4.77,28.59,10.16,42.43,15.36c3.86,1.45,7.72,2.91,11.59,4.35
		c8.07,3.02,16.14,6.01,24.21,9.01l0.33,0.12c0.77,0.27,2.06,0.72,2.75,2.14l0.38,0.77l-0.3,0.8c-0.71,1.91-2.16,2.12-2.75,2.12
		c-0.68,0-1.25-0.24-1.62-0.41c-0.07-0.03-0.14-0.06-0.2-0.08c-3.77-1.35-7.53-2.71-11.29-4.07c-3.66-1.32-7.33-2.65-10.99-3.96
		c-3.66-1.31-7.32-2.61-10.98-3.92c-12.1-4.31-24.56-8.75-36.83-13.37c0,0,0,0,0,0c2.58,3.42,5.27,6.94,7.36,10.89
		c0.11,0.2,0.25,0.36,0.63,0.54c5.12,2.29,10.16,4.91,15.04,7.43c3.85,1.99,7.83,4.05,11.79,5.93c0.75,0.35,1.52,0.66,2.34,0.99
		c0.72,0.29,1.43,0.57,2.14,0.89c0.09,0.04,0.19,0.08,0.29,0.12c0.81,0.33,2.96,1.19,2.77,3.9l-0.08,1.21l-1.11,0.49
		c-0.53,0.23-1.07,0.35-1.62,0.35c-1.2,0-2.11-0.54-2.77-0.94c-0.12-0.07-0.24-0.14-0.35-0.21c-6.07-3.33-12.49-6.3-18.7-9.17
		c-2.23-1.03-4.52-2.09-6.79-3.16c0.06,0.12,0.13,0.23,0.19,0.35c1.47,2.73,2.98,5.56,4.42,8.38c0.39,0.76,0.75,1.21,1.15,1.48
		c0.15-0.02,0.27-0.04,0.43-0.06c0.76-0.86,1.93-2.23,3.86-2.23c0.73,0,1.49,0.21,2.25,0.61c1.81,0.98,2.62,2.93,2.3,5.22
		c0.37,0.08,0.72,0.22,1.05,0.41l0.22,0.12l0.18,0.17c0.42,0.41,0.74,0.89,1.01,1.31c0.39,0.61,0.66,0.99,0.98,1.09l1.36,0.42
		l0.04,1.43c0.07,2.31-1.23,3.58-2.21,4.34l-0.6,0.46l-0.76-0.05c-0.26-0.02-0.52-0.04-0.78-0.07c-0.36-0.04-0.72-0.08-1.08-0.08
		c-0.32,0-0.58,0.04-0.81,0.12c-1.17,0.4-2.25,0.59-3.28,0.59c-2.16,0-4.03-0.85-5.58-2.52c-0.25-0.28-0.75-0.52-1.12-0.67
		c-0.63-0.01-1.25-0.01-1.88-0.01c-8.17,0-16.16,0.81-24.3,2.47c0.5,0.36,1,0.7,1.5,1.04l9.19,6.25
		c6.92,4.71,13.84,9.41,20.75,14.12l0.42,0.27c1.14,0.75,2.7,1.76,3.31,3.79l0.35,1.16l-0.86,0.85
		C374.62,142.57,373.73,142.97,372.78,142.97z"/>
	<path class="st0" d="M425.56,94.79c-0.5,1.34-1.36,0.68-2.04,0.44c-7.43-2.66-14.85-5.37-22.28-8.03
		c-17.26-6.18-34.56-12.23-51.69-18.76c-0.5-0.18-0.98-0.48-1.61-0.29c-0.02,0.93,0.69,1.43,1.13,2.04
		c3.21,4.4,6.72,8.59,9.28,13.43c0.37,0.69,0.89,1.11,1.57,1.42c9.12,4.09,17.79,9.08,26.81,13.35c1.48,0.7,3.03,1.22,4.52,1.89
		c0.85,0.38,1.98,0.6,1.88,2.06c-1.21,0.53-2.09-0.23-2.98-0.72c-9.64-5.29-19.8-9.51-29.66-14.34c-0.15-0.07-0.35-0.04-0.53-0.05
		c-0.5,0.42-0.14,0.8,0.06,1.18c2.17,4.09,4.4,8.14,6.5,12.27c0.8,1.57,1.83,2.64,3.65,2.95c1.53-0.91,2.32-3.66,4.87-2.29
		c1.54,0.83,1.71,2.95,0.62,5.25c0.75,0.64,1.58-0.28,2.69,0.35c0.79,0.76,1.24,2.39,2.79,2.87c0.04,1.29-0.56,2.02-1.43,2.69
		c-1.15-0.08-2.27-0.33-3.45,0.07c-2.47,0.84-4.8,0.72-6.75-1.39c-0.59-0.64-1.47-1.03-2.18-1.31c-10.46-0.19-20.76,0.92-31.43,3.47
		c2,1.4,3.59,2.56,5.21,3.67c9.98,6.79,19.97,13.58,29.95,20.38c1.17,0.79,2.48,1.47,2.94,2.99c-1.1,1.08-1.99,0.44-2.79-0.08
		c-1.67-1.09-3.28-2.27-4.93-3.41c-10.7-7.35-21.41-14.68-32.1-22.06c-0.95-0.65-1.8-1-3.01-0.75c-6.24,1.3-12.63,1.27-18.94,1.99
		c-6.49,0.75-13.02,1.02-19.53,1.43c-5.49,0.35-10.72,1.9-15.9,3.59c-4.14,1.35-8.28,2.73-12.59,3.43
		c-4.58,0.75-8.82,2.83-13.43,3.42c-0.71,0.09-1.07,0.62-1.52,1.07c-2.29,2.28-3.58,1.97-4.8-1.17c-5.25,0.3-10.51,0.02-15.78,0.04
		c-1.01,0-2.05-0.05-2.87-0.66c-0.87-0.64-1.8-0.84-2.81-0.79c-1.17,0.06-1.83-0.52-2.02-1.69c-8.05-0.05-15.94-0.27-23.83,0.31
		c-4.43,0.33-8.88,0.29-13.32,0.6c-6.61,0.46-13.25,0.31-19.86,0.72c-6.33,0.39-12.67,0.7-18.97,1.44c-2.97,0.35-5.97,0.56-8.95,0.7
		c-2.14,0.11-4.12,0.55-5.93,1.72c-1.7,1.09-3.49,1.97-5.55,2.09c-0.66,0.04-1.23,0.29-1.77,0.65c-2.16,1.46-4.51,1.67-7.04,1.31
		c-4.97-0.7-9.98-0.03-14.96-0.15c-1.39-0.03-2.65,0.67-3.7,1.56c-2.23,1.87-2.41,1.89-4.31-0.16c-0.24-0.26-0.46-0.55-0.76-0.89
		c-1.86,0.27-3.74,0.23-5.47,1.26c-1.17,0.69-2.47,0.4-3.66-0.21c-10.26-5.31-21.44-7.84-32.5-10.71c-1.76-0.45-3.64-0.26-5.47,0.34
		c-2.71-2.64-5.3-5.15-8.02-7.79c0.56-1.75,2.38-2.28,3.79-3.21c2.03,0.99,2.03,0.99,5.41,5.8c2.9-2.44,5.78-4.88,8.69-7.3
		c9.08-7.55,17.47-15.87,26.22-23.79c0.46-0.43,0.9-0.91,1.24-1.44c4.25-6.56,10.5-10.98,16.57-15.6c2.74-2.09,5.63-3.99,8.65-5.66
		c1.55-0.87,2.76-1.99,3.66-3.54c2.7-4.62,5.92-8.93,8.49-13.63c0.34-0.63,0.87-1.18,0.91-2.11c-1.08-0.28-1.85,0.46-2.66,0.87
		C97.52,58.15,77.19,68.43,56.83,78.66c-15.42,7.74-30.86,15.43-46.31,23.1c-1.03,0.51-1.91,1.62-3.38,1.03
		c7.33-4.57,15.17-8.15,22.77-12.2c7.69-4.09,15.46-8.04,23.19-12.06c7.82-4.06,15.62-8.14,23.44-12.18
		c7.74-4.01,15.5-7.99,23.26-11.95c7.75-3.97,15.52-7.9,23.18-11.79c1.97-6.35,4.29-8.11,11.05-8.48c1.59-0.09,2.97-0.65,4.14-1.79
		c5.12-5.02,10.46-9.82,15.97-14.4c5.35-4.45,11.51-6.99,18.5-7.92c6.85-0.91,13.31-0.04,19.77,2.23c4.1,1.44,8.33,2.5,12.62,3.33
		c3.12,0.6,6.12,1.7,9.11,2.75c18.16,6.36,36.54,12.02,54.82,17.99c12.68,4.15,25.23,8.68,37.83,13.06c2.56,0.89,5.02,1.5,7.89,1.15
		c5.66-0.69,10.97,1.09,15.89,3.83c4.22,2.34,8.12,5.17,11.67,8.46c0.93,0.86,1.91,1.59,3.17,2.01c18.16,6.07,36.02,13,53.95,19.69
		c8.08,3.02,16.16,6.02,24.24,9.02C424.34,93.82,425.17,93.99,425.56,94.79z"/>
	<path d="M245.29,85.7c0.77,1.11,1.58,0.61,2.33,0.43c7.4-1.78,14.56-4.31,21.67-6.98c0.87-0.32,1.88-0.62,2.12-1.81
		C268.09,76.91,247.77,83.43,245.29,85.7z M174.69,79.75c-1.05,1.19-2.52,2.27-2.58,4.41c2.17-0.64,3.09-2.39,4.39-3.64
		s2.45-2.64,3.62-4.02c1.16-1.36,2.77-2.45,3.15-5.11C179.32,73.66,177.19,76.91,174.69,79.75z M198.29,74.19
		c-8.11,5.1-15.13,11.49-21.8,18.3c-0.37,0.37-0.75,0.85-0.17,1.39c2.6-0.79,22.02-17.17,23.41-19.81
		C199.06,73.7,198.66,73.95,198.29,74.19z M198.93,60.47c-9.74,8.3-18.88,17.22-27.36,26.81c-2.82,3.19-5.76,6.29-8.06,9.9
		c-0.51,0.79-1.3,1.53-1.04,2.54c0.66,0.56,1.15,0.34,1.59-0.01c0.99-0.8,1.93-1.65,2.76-2.62c6.27-7.28,12.37-14.71,19.17-21.52
		c4.61-4.62,9.24-9.22,13.84-13.85c0.73-0.74,1.64-1.39,2-2.82C200.36,59.07,199.67,59.84,198.93,60.47z M325.43,75.01
		c-0.48-0.13-1.08-0.23-1.48,0.43c0.21,0.93,1.03,1.06,1.79,1.31c6.16,2.01,23.56,5.42,26.07,4.84
		C342.79,78.85,334.02,77.26,325.43,75.01z M329.74,59.29c-4.58-1.68-9.01-3.83-13.9-4.61c-2.69-0.43-5.39-0.73-8.07-1.13
		c-15.96-2.37-31.61-6.25-47.3-9.94c-6.89-1.62-13.54-4.06-20.35-5.96c-0.91-0.26-1.83-0.8-3.17-0.17c0.91,1.6,2.38,1.66,3.6,1.99
		c7.95,2.21,15.9,4.38,23.81,6.73c13.65,4.05,27.62,6.75,41.62,9.27c6.32,1.13,12.7,1.91,18.82,3.99c1.46,0.5,2.96,0.85,4.46,1.23
		c0.59,0.15,1.27,0.39,1.51-0.53C330.55,59.71,330.17,59.45,329.74,59.29z M245.29,85.7c0.77,1.11,1.58,0.61,2.33,0.43
		c7.4-1.78,14.56-4.31,21.67-6.98c0.87-0.32,1.88-0.62,2.12-1.81C268.09,76.91,247.77,83.43,245.29,85.7z M198.93,60.47
		c-9.74,8.3-18.88,17.22-27.36,26.81c-2.82,3.19-5.76,6.29-8.06,9.9c-0.51,0.79-1.3,1.53-1.04,2.54c0.66,0.56,1.15,0.34,1.59-0.01
		c0.99-0.8,1.93-1.65,2.76-2.62c6.27-7.28,12.37-14.71,19.17-21.52c4.61-4.62,9.24-9.22,13.84-13.85c0.73-0.74,1.64-1.39,2-2.82
		C200.36,59.07,199.67,59.84,198.93,60.47z M198.29,74.19c-8.11,5.1-15.13,11.49-21.8,18.3c-0.37,0.37-0.75,0.85-0.17,1.39
		c2.6-0.79,22.02-17.17,23.41-19.81C199.06,73.7,198.66,73.95,198.29,74.19z M176.5,80.52c1.3-1.25,2.45-2.64,3.62-4.02
		c1.16-1.36,2.77-2.45,3.15-5.11c-3.95,2.27-6.08,5.52-8.58,8.36c-1.05,1.19-2.52,2.27-2.58,4.41
		C174.28,83.52,175.2,81.77,176.5,80.52z M325.43,75.01c-0.48-0.13-1.08-0.23-1.48,0.43c0.21,0.93,1.03,1.06,1.79,1.31
		c6.16,2.01,23.56,5.42,26.07,4.84C342.79,78.85,334.02,77.26,325.43,75.01z M329.26,60.69c0.59,0.15,1.27,0.39,1.51-0.53
		c-0.22-0.45-0.6-0.71-1.03-0.87c-4.58-1.68-9.01-3.83-13.9-4.61c-2.69-0.43-5.39-0.73-8.07-1.13c-15.96-2.37-31.61-6.25-47.3-9.94
		c-6.89-1.62-13.54-4.06-20.35-5.96c-0.91-0.26-1.83-0.8-3.17-0.17c0.91,1.6,2.38,1.66,3.6,1.99c7.95,2.21,15.9,4.38,23.81,6.73
		c13.65,4.05,27.62,6.75,41.62,9.27c6.32,1.13,12.7,1.91,18.82,3.99C326.26,59.96,327.76,60.31,329.26,60.69z M423.6,93.54
		c-8.08-3-16.16-6-24.24-9.02c-17.93-6.69-35.79-13.62-53.95-19.69c-1.26-0.42-2.24-1.15-3.17-2.01c-3.55-3.29-7.45-6.12-11.67-8.46
		c-4.92-2.74-10.23-4.52-15.89-3.83c-2.87,0.35-5.33-0.26-7.89-1.15c-12.6-4.38-25.15-8.91-37.83-13.06
		c-18.28-5.97-36.66-11.63-54.82-17.99c-2.99-1.05-5.99-2.15-9.11-2.75c-4.29-0.83-8.52-1.89-12.62-3.33
		c-6.46-2.27-12.92-3.14-19.77-2.23c-6.99,0.93-13.15,3.47-18.5,7.92c-5.51,4.58-10.85,9.38-15.97,14.4
		c-1.17,1.14-2.55,1.7-4.14,1.79c-6.76,0.37-9.08,2.13-11.05,8.48c-7.66,3.89-15.43,7.82-23.18,11.79
		c-7.76,3.96-15.52,7.94-23.26,11.95c-7.82,4.04-15.62,8.12-23.44,12.18c-7.73,4.02-15.5,7.97-23.19,12.06
		c-7.6,4.05-15.44,7.63-22.77,12.2c1.47,0.59,2.35-0.52,3.38-1.03c15.45-7.67,30.89-15.36,46.31-23.1
		c20.36-10.23,40.69-20.51,61.05-30.74c0.81-0.41,1.58-1.15,2.66-0.87c-0.04,0.93-0.57,1.48-0.91,2.11
		c-2.57,4.7-5.79,9.01-8.49,13.63c-0.9,1.55-2.11,2.67-3.66,3.54c-3.02,1.67-5.91,3.57-8.65,5.66c-6.07,4.62-12.32,9.04-16.57,15.6
		c-0.34,0.53-0.78,1.01-1.24,1.44c-8.75,7.92-17.14,16.24-26.22,23.79c-2.91,2.42-5.79,4.86-8.69,7.3c-3.38-4.81-3.38-4.81-5.41-5.8
		c-1.41,0.93-3.23,1.46-3.79,3.21c2.72,2.64,5.31,5.15,8.02,7.79c1.83-0.6,3.71-0.79,5.47-0.34c11.06,2.87,22.24,5.4,32.5,10.71
		c1.19,0.61,2.49,0.9,3.66,0.21c1.73-1.03,3.61-0.99,5.47-1.26c0.3,0.34,0.52,0.63,0.76,0.89c1.9,2.05,2.08,2.03,4.31,0.16
		c1.05-0.89,2.31-1.59,3.7-1.56c4.98,0.12,9.99-0.55,14.96,0.15c2.53,0.36,4.88,0.15,7.04-1.31c0.54-0.36,1.11-0.61,1.77-0.65
		c2.06-0.12,3.85-1,5.55-2.09c1.81-1.17,3.79-1.61,5.93-1.72c2.98-0.14,5.98-0.35,8.95-0.7c6.3-0.74,12.64-1.05,18.97-1.44
		c6.61-0.41,13.25-0.26,19.86-0.72c4.44-0.31,8.89-0.27,13.32-0.6c7.89-0.58,15.78-0.36,23.83-0.31c0.19,1.17,0.85,1.75,2.02,1.69
		c1.01-0.05,1.94,0.15,2.81,0.79c0.82,0.61,1.86,0.66,2.87,0.66c5.27-0.02,10.53,0.26,15.78-0.04c1.22,3.14,2.51,3.45,4.8,1.17
		c0.45-0.45,0.81-0.98,1.52-1.07c4.61-0.59,8.85-2.67,13.43-3.42c4.31-0.7,8.45-2.08,12.59-3.43c5.18-1.69,10.41-3.24,15.9-3.59
		c6.51-0.41,13.04-0.68,19.53-1.43c6.31-0.72,12.7-0.69,18.94-1.99c1.21-0.25,2.06,0.1,3.01,0.75c10.69,7.38,21.4,14.71,32.1,22.06
		c1.65,1.14,3.26,2.32,4.93,3.41c0.8,0.52,1.69,1.16,2.79,0.08c-0.46-1.52-1.77-2.2-2.94-2.99c-9.98-6.8-19.97-13.59-29.95-20.38
		c-1.62-1.11-3.21-2.27-5.21-3.67c10.67-2.55,20.97-3.66,31.43-3.47c0.71,0.28,1.59,0.67,2.18,1.31c1.95,2.11,4.28,2.23,6.75,1.39
		c1.18-0.4,2.3-0.15,3.45-0.07c0.87-0.67,1.47-1.4,1.43-2.69c-1.55-0.48-2-2.11-2.79-2.87c-1.11-0.63-1.94,0.29-2.69-0.35
		c1.09-2.3,0.92-4.42-0.62-5.25c-2.55-1.37-3.34,1.38-4.87,2.29c-1.82-0.31-2.85-1.38-3.65-2.95c-2.1-4.13-4.33-8.18-6.5-12.27
		c-0.2-0.38-0.56-0.76-0.06-1.18c0.18,0.01,0.38-0.02,0.53,0.05c9.86,4.83,20.02,9.05,29.66,14.34c0.89,0.49,1.77,1.25,2.98,0.72
		c0.1-1.46-1.03-1.68-1.88-2.06c-1.49-0.67-3.04-1.19-4.52-1.89c-9.02-4.27-17.69-9.26-26.81-13.35c-0.68-0.31-1.2-0.73-1.57-1.42
		c-2.56-4.84-6.07-9.03-9.28-13.43c-0.44-0.61-1.15-1.11-1.13-2.04c0.63-0.19,1.11,0.11,1.61,0.29
		c17.13,6.53,34.43,12.58,51.69,18.76c7.43,2.66,14.85,5.37,22.28,8.03c0.68,0.24,1.54,0.9,2.04-0.44
		C425.17,93.99,424.34,93.82,423.6,93.54z M136.87,41.65c0.84,0.81,1.54,1.5,1.77,2.75c-4.2,3.28-8.42,6.66-13.19,9.41
		C129.21,49.81,132.98,45.8,136.87,41.65z M137.51,120.05c-1.35,1.5-3.14,2.44-4.78,3.56c-1.55,1.07-3.18,2.04-4.9,2.91
		c1.63-2.41,4.96-3.25,6.18-6.16c-1.65-1.08-2.59-0.1-3.5,0.51c-2.48,1.68-4.83,3.55-6.95,5.65c-1.4,1.39-2.91,2.05-4.88,1.79
		c-4.36-0.57-8.66-0.2-12.9,0.95c-0.14,0.04-0.32-0.1-0.74-0.25c4.04-6.67,8.53-12.96,13.33-19.85c0.26,2.88,0.51,5.07,1.06,7.22
		c1.22,4.79,6.15,5.08,8.66,2.36c2.24-2.41,4.51-2.72,7.23-1.04c1.16,0.71,2.22,0.7,2.9-0.69c-0.01-0.01-0.01-0.01-0.02-0.02
		c0-0.03,0-0.05-0.01-0.08c-0.89-1.15-2.05-1.95-3.38-2.54c-2.83-1.28-5.45-1.12-7.81,1.08c-0.98,0.92-1.93,1.93-3.4,1.95
		c-1.17-0.75-1.13-1.91-1.11-2.96c0.33-12.5,3.72-23.79,13.09-32.67c2.59-2.46,4.25-5.65,6.52-8.59c1.28,0.35,2.52,0.16,3.67-0.75
		c0.97-0.77,2.08-1.38,3.27-1.9c-2.51,3.14-6.34,4.84-8.79,7.54c-0.14,1.57,1.06,1.42,1.58,2.03c-0.16,0.23-0.27,0.5-0.48,0.64
		c-1.5,1.01-3.03,2.02-4.58,2.91c-3.47,2-4.72,5.17-5.16,8.79c-0.4,3.35-0.34,6.72,0.8,9.96c1.42,4,2.61,8.1,4.82,11.78
		c0.51,0.84,0.88,1.74,0.96,2.73c0.02,0.02,0.03,0.04,0.05,0.06c-0.01,0.01-0.01,0.03-0.02,0.04
		C139.2,118.3,138.3,119.18,137.51,120.05z M197.95,56.03c-4.84,0.65-9.68,1.37-14.52,2.11c-7.07,1.06-14.19,1.84-21.23,3.17
		c-1.67,0.31-3.34,0.62-5.29,0.99c2.6-1.83,36.89-7.92,47.4-8.55c0.42,0.45,0.37,1.02,0.34,1.55c-0.25,3.83,0.55,7.56,0.91,11.33
		c0.92,9.94-0.35,19.54-6.38,27.97c-1.11,1.55-2.26,3.08-3.24,4.71c-1.88,3.11-4.61,4.99-7.96,6.25c-4.3,1.6-8.66,2.5-13.27,2.58
		c-10.26,0.18-20.48-0.94-30.74-0.93c-0.95,0.01-1.74-0.25-2.42-0.98c-2.96-3.21-5.02-6.89-5.85-11.19
		c-0.26-1.34-0.19-2.72,0.07-4.07c0.23-1.18,0.74-2.07,1.73-2.92c1.86-1.6,3.67-3.2,5.84-4.41c2.24-1.25,2.2-3.32,1.44-5.5
		c1.34-1.64,3.18-2.48,4.84-3.54c1.7-1.09,3.03-2.49,3.03-4.56c0-2.44,1.21-4.07,2.6-5.16c15.84-3.24,31.33-4.62,46.49-8.19
		C200.55,55.58,199.2,55.86,197.95,56.03z M222.2,112.95c-2.84-0.26-5.79-0.52-8.85-0.8c-0.55,1.02-0.93,2.13-2.26,2.44
		c-0.75,0.18-1.17,0.86-0.97,1.71c0.18,0.82,0.81,1.15,1.57,1.3c2.67,0.52,5.34,1.03,8.01,1.55c0.34,0.07,0.67,0.18,1,0.27
		c0.13,1.05-0.2,1.86-0.85,2.95c-3,0-6.16-0.03-9.32,0.01c-9.62,0.12-19.21,0.6-28.79,1.53c-3.06,0.3-6.15,0.42-9.23,0.57
		c-5.98,0.28-11.95,0.69-17.95,0.71c-4.51,0.01-9.03,0.52-13.86,0.83c-0.15-1.22-0.24-2.31-0.91-3.43c3.01-2.66,1.28-5.83,0.88-9.01
		c2.77-1.25,5.64-0.59,8.59-0.81c0.28,1.91,0.21,3.83,2.53,4.25c0.99-0.38,1.74-1.16,2.43-1.72c0.46-1.26-0.94-1.2-1.14-2.03
		c7.42-0.05,14.75,0.27,22.07,0.95c4.87,0.46,9.75,0.82,14.63,1.24c2.26,0.19,4.51,0.51,6.77,0.6c3.85,0.15,4.62-0.88,3.77-4.74
		c-0.04-0.17-0.14-0.33-0.39-0.9c-4.22-1.31-8.96-0.04-13.46-1.25c-0.09-0.31,0.25-0.24,0.41-0.31c0.25-0.11,0.52-0.18,0.78-0.26
		c6.75-2.09,11.4-6.62,14.33-12.88c2.37-5.08,4.6-10.19,5.7-15.81c1.09-5.54,1.14-11.01,0.09-16.44c-0.77-3.93-0.41-7.92-1.23-11.83
		c-0.28-1.35-0.42-2.63-1.31-3.76c-1.39-1.75-2.12-3.72-2.13-6.03c-0.02-3.37-1.93-5.96-4.52-7.69c-5.12-3.42-10.29-6.89-16.93-7.29
		c0.44-1.58,1.56-2.76,1.49-4.48c4.35,0.55,8.44,1.08,11.34,4.65c0.51,0.63,1.14,1.21,1.84,1.62c6.62,3.86,10.54,10.05,14.27,16.43
		c0.46,0.78,0.79,1.65,1.33,2.37c2.93,3.92,3.44,8.49,3.5,13.13c0.09,7.99,0.43,15.97,1.23,23.9c0.73,7.21,1.95,14.37,3.86,21.39
		c0.46,1.66,1.03,3.3,1.91,4.79C222.88,111.43,223.13,112.16,222.2,112.95z M225.2,124.26c0.57-3.18,1.07-6.18,1.64-9.17
		c0.24-1.24,0.33-2.35-1.19-2.82c1.36-3.31,2.62-6.41,3.77-9.56c1.42-3.92,1.44-7.92,0.77-11.82c-2.13-12.47-5.62-24.56-11.26-35.96
		c-0.6-1.21-1.11-2.49-1.55-3.77c-1.78-5.2-4.53-9.9-7.64-14.39c-1.61-2.32-3.54-4.37-5.87-6c-3.79-2.66-7.51-5.43-11.41-7.91
		c-3.07-1.95-6.5-3.2-10.05-4.07c-2.44-0.59-4.88-1.22-7.3-1.83c-0.12-1.43,1.22-2.39,0.8-3.81c-1.13-0.28-1.42,0.67-1.73,1.3
		c-0.91,1.8-2.31,2.94-4.11,3.76c-1.82,0.82-3.58,1.78-5.34,2.72c-0.85,0.46-1.77,0.87-2.52,2.19c3.15,0.35,5.22-1.74,8-2.49
		c-0.8,3.19-3.55,5.39-3.25,8.72c3.42-2.93,4.68-7.28,7.27-10.95c1.93,0.98,3.83,1.95,5.64,2.87c0.37,1.39-0.34,2.27-1.05,3.08
		c-1.31,1.49-2.71,2.92-4.07,4.38c-0.6,0.65-1.39,1.22-1.05,2.17c0.72,0.91,1.45,0.04,2.1,0.25c0.23,0.3,0.05,0.53-0.14,0.68
		c-1.62,1.24-2.57,2.62-2.62,4.92c-0.08,3.12-1.49,5.93-3.62,8.32c-1.87,2.11-3.89,4.06-6.06,5.87c-2.79,2.33-5.4,4.85-7.91,7.47
		c-0.5,0.52-1.12,1.06-1.34,1.7c-1.04,3.12-3.62,4.91-5.85,7c-1.35,1.27-2.77,2.46-4.27,3.57c2.22-3.65,4.9-6.95,7.06-10.6
		c0.18-0.3,0.47-0.57,0.76-0.76c4.81-3.08,8.33-7.54,12.27-11.54c0.61-0.61,1.43-1.18,1.2-2.45c-2.14-0.2-2.98,1.69-4.28,2.72
		c-1.3,1.04-2.39,2.35-3.97,3.08c5.53-9.73,13.12-18.15,17.76-28.68c-1.53-0.26-1.85,0.73-2.32,1.38
		c-7.98,11.04-15.74,22.23-23.18,33.63c-0.53,0.81-0.89,1.78-1.81,2.29v0.05h-0.04c-1.82,3.96-4.47,7.42-6.61,11.19
		c-0.67,1.18-1.49,2.28-2.23,3.42c-1.66,2.6-3.43,4.98-6.16,6.72c-3.5,2.24-5.94,5.66-7.73,9.35c-1.93,3.97-4.59,7.38-7.2,10.86
		c-3.7,4.94-7.37,9.9-11.03,14.87c-0.57,0.76-1.36,1.46-1.28,2.69c1.19,0.29,1.63-0.67,2.18-1.26c3.43-3.64,6.26-7.76,9.33-11.7
		c0.43-0.56,0.89-1.12,1.73-1.39c-3.14,4.56-6.31,9.1-9.43,13.68c-3.11,4.56-6.23,9.1-9.81,13.33c-0.02-1.8,0.8-3.19,1.41-4.66
		c1.02-2.41,0.66-3.78-1.16-4.58c-1.98-0.86-4.69,0.21-5.36,2.3c-0.56,1.72-0.85,3.52-1.23,5.29c-0.14,0.61-0.02,1.29-0.89,2.01
		c-6.69-3.18-13.63-6.3-21.23-7.37c-7.42-1.05-14.82-2.29-22.9-2.28c2.63-2.28,4.8-4.29,7.11-6.14c5.61-4.48,10.92-9.29,16.2-14.13
		c0.74-0.68,1.46-1.23,2.56-1.39c1.5-0.23,2.47-1.45,3.39-2.57c3.49-4.29,7.02-8.56,10.39-12.95c1.81-2.34,3.97-4.2,6.4-5.83
		c8.36-5.62,16.94-10.9,25.22-16.65c6.35-4.4,12.5-9.04,18.53-13.85c0.83-0.67,1.6-1.45,2.61-1.85c0.99,0.64,1.15,1.69,1.52,2.58
		c1.09,2.59,2.09,5.22,3.17,7.82c0.48,1.16,0.94,2.4,2.5,2.49c0-0.01,0.01-0.02,0.01-0.03c0.01-0.01,0.02-0.01,0.03-0.02
		c0.01-0.44,0.1-0.91-0.02-1.31c-1.85-6.08-3.59-12.2-7.29-17.51c-0.83-1.21-1.91-2.17-3.31-3.32c1.49-0.07,2.46,0.49,3.4,1.06
		c2.71,1.65,5.4,3.35,8.09,5.03c0.75,0.46,1.41,1.24,2.54,0.5c0.17-1.4-0.99-2-1.86-2.65c-2.63-1.95-5.38-3.71-8.39-5.03
		c-0.66-0.28-1.3-0.6-2.14-0.99c5.8-2.84,11.4-5.59,17.01-8.33c0.81-0.4,1.64-0.76,2.44-1.2c0.86-0.48,1.83-0.89,1.73-2.17
		c-0.06-0.76,0.62-1.06,1.03-1.51c0.53-0.59,1.28-1.03,1.32-1.91c-0.69-0.69-1.24-0.26-1.74,0.11c-1.72,1.33-3.45,2.66-5.12,4.05
		c-2.86,2.37-5.2,3.67-9.74,5.11c11.09-12.3,23.85-19.24,40.82-17.33c-1.02,0.84-2.06,0.07-2.77,0.97c0.82,0.61,1.7,0.98,2.65,1.28
		c13.06,4.04,22.79,12.31,30.33,23.52c4.6,6.84,7.79,14.32,10.92,21.87c2.5,6.04,5.24,11.97,7.92,17.93
		c0.89,1.99,1.46,4.07,2.13,6.46c-1.11-0.46-1.02-1.71-1.97-1.89c-0.77,0.19-0.53,0.79-0.39,1.29c0.32,1.13,0.43,2.43,1.08,3.34
		c3.11,4.34,3.22,9.55,4.28,14.44c1.3,6.01,2.15,12.13,3.17,18.2c0.18,1.07,0.27,2.15,0.45,3.61
		C237.73,123.27,231.54,123.57,225.2,124.26z M249.63,116.64c-0.8-0.24-0.64-0.99-0.79-1.56c-1.06-3.94-2.06-7.89-2.8-11.91
		c-0.2-1.03-0.13-2.4-1.68-2.99c-0.84,1.12-0.48,2.26-0.29,3.38c0.97,5.71,1.96,11.42,2.92,17.14c0.07,0.42,0.2,0.9-0.55,1.21
		c-1.2-6.03-2.67-11.97-3.51-18.03c-0.62-4.49-1.16-8.98-2.38-13.36c-0.37-1.3-0.54-2.68-1.98-3.66c1.65-0.68,1.38-1.75,1-2.83
		c-2.93-8.1-5.1-16.46-8.48-24.4c-2.24-5.28-5.23-10.16-7.77-15.28c-0.36-0.73-0.76-1.44-1.14-2.17c0.51-1.07,1.41-1.67,2.37-2.54
		c8.64,6.01,17.25,12,25.87,18c-6.24-0.95-12.23-2.93-18.97-4.02c0.92,1.54,1.91,1.68,2.83,1.92c5.94,1.62,11.88,3.27,17.85,4.8
		c2.5,0.63,4.75,1.62,6.88,3.1c6.77,4.72,13.64,9.31,20.48,13.95c1.04,0.71,2.08,1.43,3.3,2.28c-1.11,1-2.38,1.04-3.54,1.26
		c-8.91,1.7-17.65,4.12-26.38,6.54c-2.35,0.65-4.64,1.55-6.93,2.41c-1.24,0.46-1.21,0.54-1.99,2.34c4.9-0.43,9.22-2.3,13.7-3.44
		c4.57-1.15,9.13-2.37,13.67-3.63c4.54-1.26,9.06-2.6,13.74-3.95c5.54,3.8,11.14,7.63,16.99,11.64c-3.16,1.95-6.28,3.32-9.49,4.49
		c-11.61,4.23-22.89,9.21-33.98,14.65c-1.46,0.72-2.91,1.45-3.97,2.61C251.97,114.4,251.97,114.4,249.63,116.64z M255.74,121.61
		c1.12-2.24,2.36-4.32-0.03-6.46c7.02-1.85,13.32-4.89,19.74-7.63c9.34-3.99,19.04-7.11,28.13-11.7c0.72-0.37,1.51-0.82,2.32-0.28
		c3.13,2.11,6.24,4.26,9.36,6.39c-0.05,0.26-0.1,0.51-0.15,0.76C295.62,109.79,275.55,115.09,255.74,121.61z M299.68,110.9
		c0.87-0.79,1.79-0.88,2.6-1.16c4.29-1.47,8.7-2.66,12.85-4.44c3.22-1.39,5.32-0.3,7.78,2.2
		C315.06,109.35,307.48,110.03,299.68,110.9z M357.81,94.01c3.35,1.94,3.85,5.69,5.81,8.46c-1.23,1.92-2.84,1.11-4.3,1.2
		c-1.18-1.99-1.54-4.53-4.15-5.55c-0.82,2.16,0.89,3.68,0.65,5.65c-4.09,1.2-8.43,0.02-12.58,1.03c1.63-1.09,3.5-1.38,5.28-1.93
		c1.64-0.51,3.58-0.43,4.83-2.15c-0.97-1.08-1.96-1.07-3.09-0.97c-3.37,0.28-6.59,1.14-9.78,2.22c-3.77,1.27-7.58,2.47-11.31,3.88
		c-2.19,0.83-4.02,0.63-5.72-0.97c-0.58-0.53-1.46-0.75-1.74-1.78c11.05-4.74,22.62-8.19,33.52-13.55c0.53,1,1.01,1.96,1.53,2.89
		C357.07,93,357.32,93.72,357.81,94.01z M356.9,85.42c0.09,0.14,0.08,0.35,0.14,0.61c-0.69,0.8-1.51,1.34-2.67,1.53
		c-1.71,0.28-3.21,1.21-4.81,1.85c-9.26,3.72-18.51,7.46-27.85,10.99c-2.29,0.87-4.07,0.75-6.01-0.78
		c-2.47-1.96-5.15-3.64-8.02-5.63c3.29-1.9,6.47-3.15,9.63-4.41c3.29-1.31,6.62-2.5,9.91-3.79c0.88-0.35,2.01-0.51,2.2-1.79
		c-0.67-1.36-1.7-0.67-2.56-0.37c-3.42,1.22-6.85,2.39-10.2,3.78c-3.94,1.64-8.31,2.03-12.19,4.44
		c-5.39-3.68-10.76-7.35-16.36-11.18c2.64-1.94,6.18-1.19,8.41-3.47c-0.54-1.34-1.44-1.16-2.32-0.9c-2.25,0.69-4.51,1.37-6.74,2.12
		c-1,0.34-1.9,0.52-2.84-0.14c-6.85-4.75-13.72-9.48-20.44-14.52c4.73,1.13,9.44,2.28,14.18,3.39c8.91,2.07,17.79,4.33,26.78,6.06
		c2.58,0.5,5.18,0.85,7.81,1.01c0.67,0.05,1.26,0.07,1.75-0.57c-0.23-1.3-1.32-1.32-2.24-1.52c-5.05-1.08-10.1-2.2-15.16-3.19
		c-11.83-2.31-23.7-4.41-35.34-7.56c-1.68-0.46-3.28-1.01-4.74-1.99c-10.14-6.88-20.31-13.72-30.46-20.57
		c-0.37-0.25-0.71-0.56-1.17-0.94c1.02-2.51-0.29-3.74-2.45-4.78c-4.09-1.98-7.82-4.55-11.67-6.96c-3.55-2.23-6.79-4.78-10.09-7.31
		c-1.81-1.39-3.89-2.29-6.08-2.97c-2.5-0.78-4.96-1.69-7.4-2.68c3.11,0.07,5.96,1.13,8.83,2.13c5.23,1.8,10.44,3.64,15.78,5.08
		c10.79,2.89,21.26,6.73,31.8,10.36c12.18,4.19,24.26,8.68,36.62,12.33c7.38,2.18,14.57,5.02,21.86,7.55
		c4.54,1.57,9.11,2.72,14.03,2.88c8.19,0.27,15.2,3.96,21.47,9.01C346.1,68.82,351.73,76.95,356.9,85.42z M323.95,75.44
		c0.21,0.93,1.03,1.06,1.79,1.31c6.16,2.01,23.56,5.42,26.07,4.84c-9.02-2.74-17.79-4.33-26.38-6.58
		C324.95,74.88,324.35,74.78,323.95,75.44z M329.26,60.69c0.59,0.15,1.27,0.39,1.51-0.53c-0.22-0.45-0.6-0.71-1.03-0.87
		c-4.58-1.68-9.01-3.83-13.9-4.61c-2.69-0.43-5.39-0.73-8.07-1.13c-15.96-2.37-31.61-6.25-47.3-9.94
		c-6.89-1.62-13.54-4.06-20.35-5.96c-0.91-0.26-1.83-0.8-3.17-0.17c0.91,1.6,2.38,1.66,3.6,1.99c7.95,2.21,15.9,4.38,23.81,6.73
		c13.65,4.05,27.62,6.75,41.62,9.27c6.32,1.13,12.7,1.91,18.82,3.99C326.26,59.96,327.76,60.31,329.26,60.69z M247.62,86.13
		c7.4-1.78,14.56-4.31,21.67-6.98c0.87-0.32,1.88-0.62,2.12-1.81c-3.32-0.43-23.64,6.09-26.12,8.36
		C246.06,86.81,246.87,86.31,247.62,86.13z M164.06,99.71c0.99-0.8,1.93-1.65,2.76-2.62c6.27-7.28,12.37-14.71,19.17-21.52
		c4.61-4.62,9.24-9.22,13.84-13.85c0.73-0.74,1.64-1.39,2-2.82c-1.47,0.17-2.16,0.94-2.9,1.57c-9.74,8.3-18.88,17.22-27.36,26.81
		c-2.82,3.19-5.76,6.29-8.06,9.9c-0.51,0.79-1.3,1.53-1.04,2.54C163.13,100.28,163.62,100.06,164.06,99.71z M198.29,74.19
		c-8.11,5.1-15.13,11.49-21.8,18.3c-0.37,0.37-0.75,0.85-0.17,1.39c2.6-0.79,22.02-17.17,23.41-19.81
		C199.06,73.7,198.66,73.95,198.29,74.19z M176.5,80.52c1.3-1.25,2.45-2.64,3.62-4.02c1.16-1.36,2.77-2.45,3.15-5.11
		c-3.95,2.27-6.08,5.52-8.58,8.36c-1.05,1.19-2.52,2.27-2.58,4.41C174.28,83.52,175.2,81.77,176.5,80.52z"/>
</g>
</svg>
